<mxfile host="app.diagrams.net" modified="2023-09-04T05:35:30.195Z" agent="Mozilla/5.0 (Windows NT 10.0; Win64; x64) AppleWebKit/537.36 (KHTML, like Gecko) Chrome/116.0.0.0 Safari/537.36" etag="KoxhgTyrprAcyPfrKFsy" version="21.6.8" type="github">
  <diagram name="Страница — 1" id="esuZyuupJLuho4oqFtwd">
    <mxGraphModel dx="2794" dy="722" grid="1" gridSize="10" guides="1" tooltips="1" connect="1" arrows="1" fold="1" page="0" pageScale="1" pageWidth="827" pageHeight="1169" background="#000000" math="0" shadow="0">
      <root>
        <mxCell id="0" />
        <mxCell id="1" parent="0" />
        <mxCell id="a9ZtihEkZwW9otxZTu7b-69" value="" style="rounded=1;whiteSpace=wrap;html=1;sketch=1;curveFitting=1;jiggle=2;fillStyle=hachure;fillColor=#4D4D4D;strokeColor=#FFFFFF;" parent="1" vertex="1">
          <mxGeometry x="769" y="1150" width="410" height="152.5" as="geometry" />
        </mxCell>
        <mxCell id="a9ZtihEkZwW9otxZTu7b-33" value="" style="rounded=1;whiteSpace=wrap;html=1;sketch=1;curveFitting=1;jiggle=2;fillStyle=hachure;fillColor=#4D4D4D;strokeColor=#FFFFFF;" parent="1" vertex="1">
          <mxGeometry x="-580" y="1530" width="730" height="240" as="geometry" />
        </mxCell>
        <mxCell id="a9ZtihEkZwW9otxZTu7b-2" value="" style="ellipse;shape=cloud;whiteSpace=wrap;html=1;fillStyle=hatch;fillColor=#003300;strokeColor=#33FF33;sketch=1;curveFitting=1;jiggle=2;" parent="1" vertex="1">
          <mxGeometry x="50" y="90" width="600" height="400" as="geometry" />
        </mxCell>
        <mxCell id="a9ZtihEkZwW9otxZTu7b-1" value="&lt;h1 style=&quot;&quot;&gt;&lt;font style=&quot;font-size: 30px;&quot;&gt;Цели&lt;/font&gt;&lt;/h1&gt;&lt;p style=&quot;font-size: 20px;&quot;&gt;&lt;/p&gt;&lt;ul style=&quot;font-size: 20px;&quot;&gt;&lt;li style=&quot;font-size: 20px;&quot;&gt;модульность&lt;/li&gt;&lt;li style=&quot;font-size: 20px;&quot;&gt;слабая сцепленность&lt;br style=&quot;font-size: 20px;&quot;&gt;&lt;/li&gt;&lt;li style=&quot;font-size: 20px;&quot;&gt;параллельная разработка&lt;/li&gt;&lt;/ul&gt;&lt;p style=&quot;font-size: 20px;&quot;&gt;&lt;/p&gt;" style="text;html=1;strokeColor=none;fillColor=none;spacing=5;spacingTop=-20;whiteSpace=wrap;overflow=hidden;rounded=0;fontColor=#99FF33;fontFamily=Comic Sans MS;fontSize=20;sketch=1;curveFitting=1;jiggle=2;" parent="1" vertex="1">
          <mxGeometry x="220" y="200" width="340" height="210" as="geometry" />
        </mxCell>
        <mxCell id="a9ZtihEkZwW9otxZTu7b-3" value="ыв" style="ellipse;whiteSpace=wrap;html=1;strokeColor=#FF33FF;fillColor=#660066;fillStyle=hatch;sketch=1;curveFitting=1;jiggle=2;" parent="1" vertex="1">
          <mxGeometry x="-170" y="560" width="340" height="210" as="geometry" />
        </mxCell>
        <mxCell id="a9ZtihEkZwW9otxZTu7b-4" value="MicroFrontends" style="text;html=1;strokeColor=none;fillColor=none;align=center;verticalAlign=middle;whiteSpace=wrap;rounded=0;fontColor=#FF33FF;fontFamily=Comic Sans MS;fontSize=30;sketch=1;curveFitting=1;jiggle=2;" parent="1" vertex="1">
          <mxGeometry x="-26" y="648" width="60" height="30" as="geometry" />
        </mxCell>
        <mxCell id="a9ZtihEkZwW9otxZTu7b-5" value="ыв" style="whiteSpace=wrap;html=1;strokeColor=#007FFF;fillColor=#004C99;fillStyle=hatch;sketch=1;curveFitting=1;jiggle=2;" parent="1" vertex="1">
          <mxGeometry x="540" y="560" width="340" height="210" as="geometry" />
        </mxCell>
        <mxCell id="a9ZtihEkZwW9otxZTu7b-6" value="MONOREPO&lt;br&gt;/&lt;br&gt;STANDALONE" style="text;html=1;strokeColor=none;fillColor=none;align=center;verticalAlign=middle;whiteSpace=wrap;rounded=0;fontColor=#007FFF;fontFamily=Comic Sans MS;fontSize=30;sketch=1;curveFitting=1;jiggle=2;" parent="1" vertex="1">
          <mxGeometry x="684" y="648" width="60" height="30" as="geometry" />
        </mxCell>
        <mxCell id="a9ZtihEkZwW9otxZTu7b-7" value="" style="endArrow=classic;html=1;rounded=0;entryX=0.5;entryY=0;entryDx=0;entryDy=0;exitX=0.13;exitY=0.77;exitDx=0;exitDy=0;exitPerimeter=0;strokeColor=#FF33FF;sketch=1;curveFitting=1;jiggle=2;" parent="1" source="a9ZtihEkZwW9otxZTu7b-2" target="a9ZtihEkZwW9otxZTu7b-3" edge="1">
          <mxGeometry width="50" height="50" relative="1" as="geometry">
            <mxPoint x="390" y="620" as="sourcePoint" />
            <mxPoint x="440" y="570" as="targetPoint" />
          </mxGeometry>
        </mxCell>
        <mxCell id="a9ZtihEkZwW9otxZTu7b-8" value="" style="endArrow=classic;html=1;rounded=0;exitX=0.8;exitY=0.8;exitDx=0;exitDy=0;exitPerimeter=0;strokeColor=#3399FF;sketch=1;curveFitting=1;jiggle=2;" parent="1" source="a9ZtihEkZwW9otxZTu7b-2" target="a9ZtihEkZwW9otxZTu7b-5" edge="1">
          <mxGeometry width="50" height="50" relative="1" as="geometry">
            <mxPoint x="138" y="408" as="sourcePoint" />
            <mxPoint x="10" y="570" as="targetPoint" />
          </mxGeometry>
        </mxCell>
        <mxCell id="a9ZtihEkZwW9otxZTu7b-13" value="ыв" style="ellipse;whiteSpace=wrap;html=1;strokeColor=#FF33FF;fillColor=#660066;fillStyle=hatch;sketch=1;curveFitting=1;jiggle=2;" parent="1" vertex="1">
          <mxGeometry x="-330" y="1090" width="210.48" height="130" as="geometry" />
        </mxCell>
        <mxCell id="a9ZtihEkZwW9otxZTu7b-14" value="SHELL" style="text;html=1;strokeColor=none;fillColor=none;align=center;verticalAlign=middle;whiteSpace=wrap;rounded=0;fontColor=#FF33FF;fontFamily=Comic Sans MS;fontSize=30;sketch=1;curveFitting=1;jiggle=2;" parent="1" vertex="1">
          <mxGeometry x="-254.76" y="1140" width="60" height="30" as="geometry" />
        </mxCell>
        <mxCell id="a9ZtihEkZwW9otxZTu7b-15" value="remote" style="rounded=0;whiteSpace=wrap;html=1;fillStyle=solid;fillColor=#E6D0DE;sketch=1;curveFitting=1;jiggle=2;strokeColor=#FFFFFF;fontFamily=Comic Sans MS;" parent="1" vertex="1">
          <mxGeometry x="-287.14" y="1200" width="124.76" height="30" as="geometry" />
        </mxCell>
        <mxCell id="a9ZtihEkZwW9otxZTu7b-19" value="ыв" style="ellipse;whiteSpace=wrap;html=1;strokeColor=#FF33FF;fillColor=#660066;fillStyle=hatch;sketch=1;curveFitting=1;jiggle=2;" parent="1" vertex="1">
          <mxGeometry x="-530" y="1300" width="210.48" height="130" as="geometry" />
        </mxCell>
        <mxCell id="a9ZtihEkZwW9otxZTu7b-20" value="MF-1" style="text;html=1;strokeColor=none;fillColor=none;align=center;verticalAlign=middle;whiteSpace=wrap;rounded=0;fontColor=#FF33FF;fontFamily=Comic Sans MS;fontSize=30;sketch=1;curveFitting=1;jiggle=2;" parent="1" vertex="1">
          <mxGeometry x="-467.14" y="1350" width="84.76" height="30" as="geometry" />
        </mxCell>
        <mxCell id="a9ZtihEkZwW9otxZTu7b-21" value="expose" style="rounded=0;whiteSpace=wrap;html=1;fillStyle=solid;fillColor=#E6D0DE;sketch=1;curveFitting=1;jiggle=2;strokeColor=#FFFFFF;fontFamily=Comic Sans MS;" parent="1" vertex="1">
          <mxGeometry x="-480" y="1290" width="124.76" height="30" as="geometry" />
        </mxCell>
        <mxCell id="a9ZtihEkZwW9otxZTu7b-23" value="ыв" style="ellipse;whiteSpace=wrap;html=1;strokeColor=#FF33FF;fillColor=#660066;fillStyle=hatch;sketch=1;curveFitting=1;jiggle=2;" parent="1" vertex="1">
          <mxGeometry x="-121.24000000000001" y="1300" width="210.48" height="130" as="geometry" />
        </mxCell>
        <mxCell id="a9ZtihEkZwW9otxZTu7b-24" value="MF-2" style="text;html=1;strokeColor=none;fillColor=none;align=center;verticalAlign=middle;whiteSpace=wrap;rounded=0;fontColor=#FF33FF;fontFamily=Comic Sans MS;fontSize=30;sketch=1;curveFitting=1;jiggle=2;" parent="1" vertex="1">
          <mxGeometry x="-58.379999999999995" y="1350" width="84.76" height="30" as="geometry" />
        </mxCell>
        <mxCell id="a9ZtihEkZwW9otxZTu7b-25" value="expose" style="rounded=0;whiteSpace=wrap;html=1;fillStyle=solid;fillColor=#E6D0DE;sketch=1;curveFitting=1;jiggle=2;strokeColor=#FFFFFF;fontFamily=Comic Sans MS;" parent="1" vertex="1">
          <mxGeometry x="-71.24000000000001" y="1290" width="124.76" height="30" as="geometry" />
        </mxCell>
        <mxCell id="a9ZtihEkZwW9otxZTu7b-26" value="" style="edgeStyle=segmentEdgeStyle;endArrow=classic;html=1;curved=0;rounded=0;endSize=8;startSize=8;exitX=0.5;exitY=0;exitDx=0;exitDy=0;entryX=1;entryY=0.5;entryDx=0;entryDy=0;strokeColor=#E6D0DE;sketch=1;curveFitting=1;jiggle=2;" parent="1" source="a9ZtihEkZwW9otxZTu7b-25" target="a9ZtihEkZwW9otxZTu7b-15" edge="1">
          <mxGeometry width="50" height="50" relative="1" as="geometry">
            <mxPoint x="-190" y="1340" as="sourcePoint" />
            <mxPoint x="-140" y="1290" as="targetPoint" />
            <Array as="points">
              <mxPoint x="-9" y="1215" />
            </Array>
          </mxGeometry>
        </mxCell>
        <mxCell id="a9ZtihEkZwW9otxZTu7b-27" value="" style="edgeStyle=segmentEdgeStyle;endArrow=classic;html=1;curved=0;rounded=0;endSize=8;startSize=8;exitX=0.5;exitY=0;exitDx=0;exitDy=0;entryX=0;entryY=0.5;entryDx=0;entryDy=0;strokeColor=#E6D0DE;sketch=1;curveFitting=1;jiggle=2;" parent="1" source="a9ZtihEkZwW9otxZTu7b-21" target="a9ZtihEkZwW9otxZTu7b-15" edge="1">
          <mxGeometry width="50" height="50" relative="1" as="geometry">
            <mxPoint x="21" y="1290" as="sourcePoint" />
            <mxPoint x="-152" y="1225" as="targetPoint" />
            <Array as="points">
              <mxPoint x="-418" y="1215" />
            </Array>
          </mxGeometry>
        </mxCell>
        <mxCell id="a9ZtihEkZwW9otxZTu7b-28" value="remote" style="rounded=0;whiteSpace=wrap;html=1;fillStyle=solid;fillColor=#E6D0DE;sketch=1;curveFitting=1;jiggle=2;strokeColor=#FFFFFF;fontFamily=Comic Sans MS;" parent="1" vertex="1">
          <mxGeometry x="-487.14" y="1410" width="124.76" height="30" as="geometry" />
        </mxCell>
        <mxCell id="a9ZtihEkZwW9otxZTu7b-29" value="remote" style="rounded=0;whiteSpace=wrap;html=1;fillStyle=solid;fillColor=#E6D0DE;sketch=1;curveFitting=1;jiggle=2;strokeColor=#FFFFFF;fontFamily=Comic Sans MS;" parent="1" vertex="1">
          <mxGeometry x="-74.75999999999999" y="1410" width="124.76" height="30" as="geometry" />
        </mxCell>
        <mxCell id="a9ZtihEkZwW9otxZTu7b-30" value="ыв" style="ellipse;whiteSpace=wrap;html=1;strokeColor=#66FF66;fillColor=#006600;fillStyle=hatch;sketch=1;curveFitting=1;jiggle=2;" parent="1" vertex="1">
          <mxGeometry x="-550" y="1590" width="210.48" height="130" as="geometry" />
        </mxCell>
        <mxCell id="a9ZtihEkZwW9otxZTu7b-31" value="UI" style="text;html=1;strokeColor=none;fillColor=none;align=center;verticalAlign=middle;whiteSpace=wrap;rounded=0;fontColor=#33FF33;fontFamily=Comic Sans MS;fontSize=30;sketch=1;curveFitting=1;jiggle=2;" parent="1" vertex="1">
          <mxGeometry x="-487.14" y="1640" width="84.76" height="30" as="geometry" />
        </mxCell>
        <mxCell id="a9ZtihEkZwW9otxZTu7b-32" value="expose" style="rounded=0;whiteSpace=wrap;html=1;fillStyle=solid;fillColor=#E6D0DE;sketch=1;curveFitting=1;jiggle=2;strokeColor=#FFFFFF;fontFamily=Comic Sans MS;" parent="1" vertex="1">
          <mxGeometry x="-507.14" y="1580" width="124.76" height="30" as="geometry" />
        </mxCell>
        <mxCell id="a9ZtihEkZwW9otxZTu7b-34" value="&lt;font style=&quot;font-size: 30px;&quot; color=&quot;#ffffff&quot; face=&quot;Comic Sans MS&quot;&gt;&amp;nbsp; NPM&amp;nbsp;&amp;nbsp;&lt;/font&gt;" style="text;html=1;align=center;verticalAlign=middle;resizable=0;points=[];autosize=1;strokeColor=none;fillColor=none;labelBackgroundColor=#000000;spacingLeft=10;spacingRight=10;labelBorderColor=none;" parent="1" vertex="1">
          <mxGeometry x="-284.76" y="1500" width="140" height="50" as="geometry" />
        </mxCell>
        <mxCell id="a9ZtihEkZwW9otxZTu7b-35" value="ыв" style="ellipse;whiteSpace=wrap;html=1;strokeColor=#66FF66;fillColor=#006600;fillStyle=hatch;sketch=1;curveFitting=1;jiggle=2;" parent="1" vertex="1">
          <mxGeometry x="-320" y="1590" width="210.48" height="130" as="geometry" />
        </mxCell>
        <mxCell id="a9ZtihEkZwW9otxZTu7b-36" value="TYPES" style="text;html=1;strokeColor=none;fillColor=none;align=center;verticalAlign=middle;whiteSpace=wrap;rounded=0;fontColor=#33FF33;fontFamily=Comic Sans MS;fontSize=30;sketch=1;curveFitting=1;jiggle=2;" parent="1" vertex="1">
          <mxGeometry x="-257.14" y="1640" width="84.76" height="30" as="geometry" />
        </mxCell>
        <mxCell id="a9ZtihEkZwW9otxZTu7b-37" value="expose" style="rounded=0;whiteSpace=wrap;html=1;fillStyle=solid;fillColor=#E6D0DE;sketch=1;curveFitting=1;jiggle=2;strokeColor=#FFFFFF;fontFamily=Comic Sans MS;" parent="1" vertex="1">
          <mxGeometry x="-277.14" y="1580" width="124.76" height="30" as="geometry" />
        </mxCell>
        <mxCell id="a9ZtihEkZwW9otxZTu7b-38" value="ыв" style="ellipse;whiteSpace=wrap;html=1;strokeColor=#66FF66;fillColor=#006600;fillStyle=hatch;sketch=1;curveFitting=1;jiggle=2;" parent="1" vertex="1">
          <mxGeometry x="-94.75999999999999" y="1590" width="210.48" height="130" as="geometry" />
        </mxCell>
        <mxCell id="a9ZtihEkZwW9otxZTu7b-39" value="SHARED" style="text;html=1;strokeColor=none;fillColor=none;align=center;verticalAlign=middle;whiteSpace=wrap;rounded=0;fontColor=#33FF33;fontFamily=Comic Sans MS;fontSize=30;sketch=1;curveFitting=1;jiggle=2;" parent="1" vertex="1">
          <mxGeometry x="-31.899999999999977" y="1640" width="84.76" height="30" as="geometry" />
        </mxCell>
        <mxCell id="a9ZtihEkZwW9otxZTu7b-40" value="expose" style="rounded=0;whiteSpace=wrap;html=1;fillStyle=solid;fillColor=#E6D0DE;sketch=1;curveFitting=1;jiggle=2;strokeColor=#FFFFFF;fontFamily=Comic Sans MS;" parent="1" vertex="1">
          <mxGeometry x="-51.89999999999998" y="1580" width="124.76" height="30" as="geometry" />
        </mxCell>
        <mxCell id="a9ZtihEkZwW9otxZTu7b-41" value="" style="endArrow=classic;html=1;rounded=0;exitX=0.5;exitY=0;exitDx=0;exitDy=0;strokeColor=#33FF33;sketch=1;curveFitting=1;jiggle=2;" parent="1" source="a9ZtihEkZwW9otxZTu7b-32" target="a9ZtihEkZwW9otxZTu7b-28" edge="1">
          <mxGeometry width="50" height="50" relative="1" as="geometry">
            <mxPoint x="-180" y="1590" as="sourcePoint" />
            <mxPoint x="-130" y="1540" as="targetPoint" />
          </mxGeometry>
        </mxCell>
        <mxCell id="a9ZtihEkZwW9otxZTu7b-42" value="" style="endArrow=classic;html=1;rounded=0;exitX=0.5;exitY=0;exitDx=0;exitDy=0;strokeColor=#33FF33;entryX=0;entryY=1;entryDx=0;entryDy=0;sketch=1;curveFitting=1;jiggle=2;" parent="1" source="a9ZtihEkZwW9otxZTu7b-32" target="a9ZtihEkZwW9otxZTu7b-29" edge="1">
          <mxGeometry width="50" height="50" relative="1" as="geometry">
            <mxPoint x="-435" y="1590" as="sourcePoint" />
            <mxPoint x="-417" y="1450" as="targetPoint" />
          </mxGeometry>
        </mxCell>
        <mxCell id="a9ZtihEkZwW9otxZTu7b-43" value="" style="endArrow=classic;html=1;rounded=0;exitX=0.5;exitY=0;exitDx=0;exitDy=0;strokeColor=#33FF33;entryX=0.25;entryY=1;entryDx=0;entryDy=0;sketch=1;curveFitting=1;jiggle=2;" parent="1" source="a9ZtihEkZwW9otxZTu7b-37" target="a9ZtihEkZwW9otxZTu7b-29" edge="1">
          <mxGeometry width="50" height="50" relative="1" as="geometry">
            <mxPoint x="-435" y="1590" as="sourcePoint" />
            <mxPoint x="-417" y="1450" as="targetPoint" />
          </mxGeometry>
        </mxCell>
        <mxCell id="a9ZtihEkZwW9otxZTu7b-44" value="" style="endArrow=classic;html=1;rounded=0;strokeColor=#33FF33;entryX=0.5;entryY=1;entryDx=0;entryDy=0;sketch=1;curveFitting=1;jiggle=2;" parent="1" source="a9ZtihEkZwW9otxZTu7b-40" target="a9ZtihEkZwW9otxZTu7b-29" edge="1">
          <mxGeometry width="50" height="50" relative="1" as="geometry">
            <mxPoint x="-205" y="1590" as="sourcePoint" />
            <mxPoint x="-2" y="1450" as="targetPoint" />
          </mxGeometry>
        </mxCell>
        <mxCell id="a9ZtihEkZwW9otxZTu7b-45" value="" style="endArrow=classic;html=1;rounded=0;strokeColor=#33FF33;entryX=1;entryY=1;entryDx=0;entryDy=0;sketch=1;curveFitting=1;jiggle=2;" parent="1" target="a9ZtihEkZwW9otxZTu7b-28" edge="1">
          <mxGeometry width="50" height="50" relative="1" as="geometry">
            <mxPoint x="10" y="1580" as="sourcePoint" />
            <mxPoint x="-2" y="1450" as="targetPoint" />
          </mxGeometry>
        </mxCell>
        <mxCell id="a9ZtihEkZwW9otxZTu7b-46" value="ыв" style="whiteSpace=wrap;html=1;strokeColor=#007FFF;fillColor=#004C99;fillStyle=hatch;sketch=1;curveFitting=1;jiggle=2;" parent="1" vertex="1">
          <mxGeometry x="849" y="1190" width="250" height="70" as="geometry" />
        </mxCell>
        <mxCell id="a9ZtihEkZwW9otxZTu7b-53" value="" style="rounded=1;whiteSpace=wrap;html=1;sketch=1;curveFitting=1;jiggle=2;fillStyle=hachure;fillColor=#4D4D4D;strokeColor=#FFFFFF;" parent="1" vertex="1">
          <mxGeometry x="769" y="1640" width="410" height="152.5" as="geometry" />
        </mxCell>
        <mxCell id="a9ZtihEkZwW9otxZTu7b-47" value="node_modules" style="text;html=1;strokeColor=none;fillColor=none;align=center;verticalAlign=middle;whiteSpace=wrap;rounded=0;fontColor=#007FFF;fontFamily=Comic Sans MS;fontSize=30;sketch=1;curveFitting=1;jiggle=2;" parent="1" vertex="1">
          <mxGeometry x="943" y="1208" width="60" height="30" as="geometry" />
        </mxCell>
        <mxCell id="a9ZtihEkZwW9otxZTu7b-48" value="ыв" style="whiteSpace=wrap;html=1;strokeColor=#33FF33;fillColor=#006600;fillStyle=hatch;sketch=1;curveFitting=1;jiggle=2;" parent="1" vertex="1">
          <mxGeometry x="800" y="1681.25" width="160" height="70" as="geometry" />
        </mxCell>
        <mxCell id="a9ZtihEkZwW9otxZTu7b-49" value="ui" style="text;html=1;strokeColor=none;fillColor=none;align=center;verticalAlign=middle;whiteSpace=wrap;rounded=0;fontColor=#33FF33;fontFamily=Comic Sans MS;fontSize=30;sketch=1;curveFitting=1;jiggle=2;" parent="1" vertex="1">
          <mxGeometry x="854" y="1699.25" width="60" height="30" as="geometry" />
        </mxCell>
        <mxCell id="a9ZtihEkZwW9otxZTu7b-50" value="ыв" style="whiteSpace=wrap;html=1;strokeColor=#33FF33;fillColor=#006600;fillStyle=hatch;sketch=1;curveFitting=1;jiggle=2;" parent="1" vertex="1">
          <mxGeometry x="990" y="1679.25" width="160" height="70" as="geometry" />
        </mxCell>
        <mxCell id="a9ZtihEkZwW9otxZTu7b-51" value="shared" style="text;html=1;strokeColor=none;fillColor=none;align=center;verticalAlign=middle;whiteSpace=wrap;rounded=0;fontColor=#33FF33;fontFamily=Comic Sans MS;fontSize=30;sketch=1;curveFitting=1;jiggle=2;" parent="1" vertex="1">
          <mxGeometry x="1044" y="1697.25" width="60" height="30" as="geometry" />
        </mxCell>
        <mxCell id="a9ZtihEkZwW9otxZTu7b-54" value="&lt;font style=&quot;font-size: 30px;&quot; color=&quot;#ffffff&quot; face=&quot;Comic Sans MS&quot;&gt;&amp;nbsp; LIB&amp;nbsp;&amp;nbsp;&lt;/font&gt;" style="text;html=1;align=center;verticalAlign=middle;resizable=0;points=[];autosize=1;strokeColor=none;fillColor=none;labelBackgroundColor=#000000;spacingLeft=10;spacingRight=10;labelBorderColor=none;" parent="1" vertex="1">
          <mxGeometry x="915" y="1615" width="130" height="50" as="geometry" />
        </mxCell>
        <mxCell id="a9ZtihEkZwW9otxZTu7b-63" value="ыв" style="whiteSpace=wrap;html=1;strokeColor=#007FFF;fillColor=#004C99;fillStyle=hatch;sketch=1;curveFitting=1;jiggle=2;" parent="1" vertex="1">
          <mxGeometry x="774" y="1340" width="400" height="70" as="geometry" />
        </mxCell>
        <mxCell id="a9ZtihEkZwW9otxZTu7b-64" value="shell.pkg" style="text;html=1;strokeColor=none;fillColor=none;align=center;verticalAlign=middle;whiteSpace=wrap;rounded=0;fontColor=#007FFF;fontFamily=Comic Sans MS;fontSize=30;sketch=1;curveFitting=1;jiggle=2;" parent="1" vertex="1">
          <mxGeometry x="944" y="1358" width="60" height="30" as="geometry" />
        </mxCell>
        <mxCell id="a9ZtihEkZwW9otxZTu7b-65" value="ыв" style="whiteSpace=wrap;html=1;strokeColor=#007FFF;fillColor=#004C99;fillStyle=hatch;sketch=1;curveFitting=1;jiggle=2;" parent="1" vertex="1">
          <mxGeometry x="774" y="1430" width="400" height="70" as="geometry" />
        </mxCell>
        <mxCell id="a9ZtihEkZwW9otxZTu7b-66" value="mf-1.pkg" style="text;html=1;strokeColor=none;fillColor=none;align=center;verticalAlign=middle;whiteSpace=wrap;rounded=0;fontColor=#007FFF;fontFamily=Comic Sans MS;fontSize=30;sketch=1;curveFitting=1;jiggle=2;" parent="1" vertex="1">
          <mxGeometry x="891" y="1450" width="166" height="30" as="geometry" />
        </mxCell>
        <mxCell id="a9ZtihEkZwW9otxZTu7b-67" value="ыв" style="whiteSpace=wrap;html=1;strokeColor=#007FFF;fillColor=#004C99;fillStyle=hatch;sketch=1;curveFitting=1;jiggle=2;" parent="1" vertex="1">
          <mxGeometry x="774" y="1520" width="400" height="70" as="geometry" />
        </mxCell>
        <mxCell id="a9ZtihEkZwW9otxZTu7b-68" value="mf-2.pkg" style="text;html=1;strokeColor=none;fillColor=none;align=center;verticalAlign=middle;whiteSpace=wrap;rounded=0;fontColor=#007FFF;fontFamily=Comic Sans MS;fontSize=30;sketch=1;curveFitting=1;jiggle=2;" parent="1" vertex="1">
          <mxGeometry x="891" y="1540" width="166" height="30" as="geometry" />
        </mxCell>
        <mxCell id="a9ZtihEkZwW9otxZTu7b-70" value="&lt;font style=&quot;font-size: 30px;&quot; color=&quot;#ffffff&quot; face=&quot;Comic Sans MS&quot;&gt;&amp;nbsp; Project dependencies&amp;nbsp;&amp;nbsp;&lt;/font&gt;" style="text;html=1;align=center;verticalAlign=middle;resizable=0;points=[];autosize=1;strokeColor=none;fillColor=none;labelBackgroundColor=#000000;spacingLeft=10;spacingRight=10;labelBorderColor=none;" parent="1" vertex="1">
          <mxGeometry x="775" y="1120" width="380" height="50" as="geometry" />
        </mxCell>
        <mxCell id="a9ZtihEkZwW9otxZTu7b-71" value="" style="edgeStyle=elbowEdgeStyle;elbow=horizontal;endArrow=classic;html=1;curved=0;rounded=0;endSize=8;startSize=8;strokeColor=#00FFFF;sketch=1;curveFitting=1;jiggle=2;exitX=0;exitY=0.5;exitDx=0;exitDy=0;entryX=0;entryY=0.5;entryDx=0;entryDy=0;" parent="1" source="a9ZtihEkZwW9otxZTu7b-63" target="a9ZtihEkZwW9otxZTu7b-53" edge="1">
          <mxGeometry width="50" height="50" relative="1" as="geometry">
            <mxPoint x="790" y="1440" as="sourcePoint" />
            <mxPoint x="650" y="1620" as="targetPoint" />
            <Array as="points">
              <mxPoint x="670" y="1540" />
            </Array>
          </mxGeometry>
        </mxCell>
        <mxCell id="a9ZtihEkZwW9otxZTu7b-72" value="" style="endArrow=classic;html=1;rounded=0;strokeColor=#00FFFF;sketch=1;curveFitting=1;jiggle=2;entryX=0;entryY=0.5;entryDx=0;entryDy=0;" parent="1" target="a9ZtihEkZwW9otxZTu7b-65" edge="1">
          <mxGeometry width="50" height="50" relative="1" as="geometry">
            <mxPoint x="670" y="1465" as="sourcePoint" />
            <mxPoint x="780" y="1460" as="targetPoint" />
          </mxGeometry>
        </mxCell>
        <mxCell id="a9ZtihEkZwW9otxZTu7b-73" value="" style="endArrow=classic;html=1;rounded=0;strokeColor=#00FFFF;sketch=1;curveFitting=1;jiggle=2;entryX=0;entryY=0.5;entryDx=0;entryDy=0;" parent="1" edge="1">
          <mxGeometry width="50" height="50" relative="1" as="geometry">
            <mxPoint x="670" y="1554.66" as="sourcePoint" />
            <mxPoint x="774" y="1554.66" as="targetPoint" />
          </mxGeometry>
        </mxCell>
        <mxCell id="a9ZtihEkZwW9otxZTu7b-75" value="import" style="text;html=1;strokeColor=none;fillColor=none;align=center;verticalAlign=middle;whiteSpace=wrap;rounded=0;fontColor=#00FFFF;fontFamily=Comic Sans MS;fontSize=20;sketch=1;curveFitting=1;jiggle=2;" parent="1" vertex="1">
          <mxGeometry x="709" y="1340" width="60" height="30" as="geometry" />
        </mxCell>
        <mxCell id="a9ZtihEkZwW9otxZTu7b-76" value="" style="edgeStyle=segmentEdgeStyle;endArrow=classic;html=1;curved=0;rounded=0;endSize=8;startSize=8;entryX=0;entryY=0.5;entryDx=0;entryDy=0;fontColor=#00FFFF;strokeColor=#00FFFF;sketch=1;curveFitting=1;jiggle=2;" parent="1" target="a9ZtihEkZwW9otxZTu7b-69" edge="1">
          <mxGeometry width="50" height="50" relative="1" as="geometry">
            <mxPoint x="670" y="1380" as="sourcePoint" />
            <mxPoint x="800" y="1450" as="targetPoint" />
            <Array as="points">
              <mxPoint x="670" y="1330" />
              <mxPoint x="670" y="1226" />
            </Array>
          </mxGeometry>
        </mxCell>
        <mxCell id="a9ZtihEkZwW9otxZTu7b-77" value="" style="edgeStyle=elbowEdgeStyle;elbow=horizontal;endArrow=classic;html=1;curved=0;rounded=0;endSize=8;startSize=8;strokeColor=#00FFFF;sketch=1;curveFitting=1;jiggle=2;exitX=1;exitY=0.5;exitDx=0;exitDy=0;entryX=1;entryY=0.5;entryDx=0;entryDy=0;" parent="1" source="a9ZtihEkZwW9otxZTu7b-65" target="a9ZtihEkZwW9otxZTu7b-53" edge="1">
          <mxGeometry width="50" height="50" relative="1" as="geometry">
            <mxPoint x="1414" y="1475" as="sourcePoint" />
            <mxPoint x="1409" y="1816" as="targetPoint" />
            <Array as="points">
              <mxPoint x="1310" y="1640" />
            </Array>
          </mxGeometry>
        </mxCell>
        <mxCell id="a9ZtihEkZwW9otxZTu7b-78" value="import" style="text;html=1;strokeColor=none;fillColor=none;align=center;verticalAlign=middle;whiteSpace=wrap;rounded=0;fontColor=#00FFFF;fontFamily=Comic Sans MS;fontSize=20;sketch=1;curveFitting=1;jiggle=2;" parent="1" vertex="1">
          <mxGeometry x="1179" y="1430" width="60" height="30" as="geometry" />
        </mxCell>
        <mxCell id="a9ZtihEkZwW9otxZTu7b-79" value="" style="edgeStyle=elbowEdgeStyle;elbow=horizontal;endArrow=classic;html=1;curved=0;rounded=0;endSize=8;startSize=8;strokeColor=#00FFFF;sketch=1;curveFitting=1;jiggle=2;exitX=1;exitY=0.5;exitDx=0;exitDy=0;entryX=1;entryY=0.164;entryDx=0;entryDy=0;entryPerimeter=0;" parent="1" target="a9ZtihEkZwW9otxZTu7b-53" edge="1">
          <mxGeometry width="50" height="50" relative="1" as="geometry">
            <mxPoint x="1174" y="1555" as="sourcePoint" />
            <mxPoint x="1179" y="1806" as="targetPoint" />
            <Array as="points">
              <mxPoint x="1270" y="1610" />
            </Array>
          </mxGeometry>
        </mxCell>
        <mxCell id="a9ZtihEkZwW9otxZTu7b-80" value="import" style="text;html=1;strokeColor=none;fillColor=none;align=center;verticalAlign=middle;whiteSpace=wrap;rounded=0;fontColor=#00FFFF;fontFamily=Comic Sans MS;fontSize=20;sketch=1;curveFitting=1;jiggle=2;" parent="1" vertex="1">
          <mxGeometry x="1179" y="1520" width="60" height="30" as="geometry" />
        </mxCell>
        <mxCell id="a9ZtihEkZwW9otxZTu7b-82" value="" style="endArrow=none;dashed=1;html=1;dashPattern=1 3;strokeWidth=2;rounded=0;strokeColor=#FFFFFF;" parent="1" edge="1">
          <mxGeometry width="50" height="50" relative="1" as="geometry">
            <mxPoint x="-560" y="920" as="sourcePoint" />
            <mxPoint x="1280" y="920" as="targetPoint" />
          </mxGeometry>
        </mxCell>
        <mxCell id="a9ZtihEkZwW9otxZTu7b-83" value="&lt;font color=&quot;#ffffff&quot; style=&quot;font-size: 30px; background-color: rgb(0, 0, 0);&quot; face=&quot;Comic Sans MS&quot;&gt;&amp;nbsp; CONCEPT&amp;nbsp;&amp;nbsp;&lt;/font&gt;" style="text;html=1;align=center;verticalAlign=middle;resizable=0;points=[];autosize=1;strokeColor=none;fillColor=none;" parent="1" vertex="1">
          <mxGeometry x="210" y="891" width="200" height="50" as="geometry" />
        </mxCell>
        <mxCell id="a9ZtihEkZwW9otxZTu7b-84" value="" style="endArrow=none;dashed=1;html=1;dashPattern=1 3;strokeWidth=2;rounded=0;strokeColor=#FFFFFF;" parent="1" edge="1">
          <mxGeometry width="50" height="50" relative="1" as="geometry">
            <mxPoint x="-558" y="1950" as="sourcePoint" />
            <mxPoint x="1282" y="1950" as="targetPoint" />
          </mxGeometry>
        </mxCell>
        <mxCell id="a9ZtihEkZwW9otxZTu7b-85" value="&lt;font color=&quot;#ffffff&quot; style=&quot;font-size: 30px; background-color: rgb(0, 0, 0);&quot; face=&quot;Comic Sans MS&quot;&gt;&amp;nbsp; GIT&amp;nbsp;&amp;nbsp;&lt;/font&gt;" style="text;html=1;align=center;verticalAlign=middle;resizable=0;points=[];autosize=1;strokeColor=none;fillColor=none;" parent="1" vertex="1">
          <mxGeometry x="252" y="1921" width="120" height="50" as="geometry" />
        </mxCell>
        <mxCell id="a9ZtihEkZwW9otxZTu7b-86" value="SHELL" style="text;html=1;strokeColor=none;fillColor=none;align=center;verticalAlign=middle;whiteSpace=wrap;rounded=0;fontColor=#FF33FF;fontFamily=Comic Sans MS;fontSize=30;sketch=1;curveFitting=1;jiggle=2;" parent="1" vertex="1">
          <mxGeometry x="-547.14" y="2010" width="60" height="30" as="geometry" />
        </mxCell>
        <mxCell id="a9ZtihEkZwW9otxZTu7b-87" value="MF-1" style="text;html=1;strokeColor=none;fillColor=none;align=center;verticalAlign=middle;whiteSpace=wrap;rounded=0;fontColor=#FF33FF;fontFamily=Comic Sans MS;fontSize=30;sketch=1;curveFitting=1;jiggle=2;" parent="1" vertex="1">
          <mxGeometry x="-564.76" y="2080" width="84.76" height="30" as="geometry" />
        </mxCell>
        <mxCell id="a9ZtihEkZwW9otxZTu7b-88" value="MF-2" style="text;html=1;strokeColor=none;fillColor=none;align=center;verticalAlign=middle;whiteSpace=wrap;rounded=0;fontColor=#FF33FF;fontFamily=Comic Sans MS;fontSize=30;sketch=1;curveFitting=1;jiggle=2;" parent="1" vertex="1">
          <mxGeometry x="-564.76" y="2150" width="84.76" height="30" as="geometry" />
        </mxCell>
        <mxCell id="a9ZtihEkZwW9otxZTu7b-89" value="UI" style="text;html=1;strokeColor=none;fillColor=none;align=center;verticalAlign=middle;whiteSpace=wrap;rounded=0;fontColor=#33FF33;fontFamily=Comic Sans MS;fontSize=30;sketch=1;curveFitting=1;jiggle=2;" parent="1" vertex="1">
          <mxGeometry x="-580" y="2230" width="84.76" height="30" as="geometry" />
        </mxCell>
        <mxCell id="a9ZtihEkZwW9otxZTu7b-90" value="TYPES" style="text;html=1;strokeColor=none;fillColor=none;align=center;verticalAlign=middle;whiteSpace=wrap;rounded=0;fontColor=#33FF33;fontFamily=Comic Sans MS;fontSize=30;sketch=1;curveFitting=1;jiggle=2;" parent="1" vertex="1">
          <mxGeometry x="-559.52" y="2310" width="84.76" height="30" as="geometry" />
        </mxCell>
        <mxCell id="a9ZtihEkZwW9otxZTu7b-91" value="SHARED" style="text;html=1;strokeColor=none;fillColor=none;align=center;verticalAlign=middle;whiteSpace=wrap;rounded=0;fontColor=#33FF33;fontFamily=Comic Sans MS;fontSize=30;sketch=1;curveFitting=1;jiggle=2;" parent="1" vertex="1">
          <mxGeometry x="-547.14" y="2390" width="84.76" height="30" as="geometry" />
        </mxCell>
        <mxCell id="a9ZtihEkZwW9otxZTu7b-92" value="" style="ellipse;whiteSpace=wrap;html=1;aspect=fixed;direction=south;" parent="1" vertex="1">
          <mxGeometry x="-410" y="2010" width="30" height="30" as="geometry" />
        </mxCell>
        <mxCell id="a9ZtihEkZwW9otxZTu7b-93" value="" style="ellipse;whiteSpace=wrap;html=1;aspect=fixed;direction=south;" parent="1" vertex="1">
          <mxGeometry x="-350.52" y="2010" width="30" height="30" as="geometry" />
        </mxCell>
        <mxCell id="a9ZtihEkZwW9otxZTu7b-94" value="" style="ellipse;whiteSpace=wrap;html=1;aspect=fixed;direction=south;" parent="1" vertex="1">
          <mxGeometry x="-291.14" y="2010" width="30" height="30" as="geometry" />
        </mxCell>
        <mxCell id="a9ZtihEkZwW9otxZTu7b-95" value="" style="ellipse;whiteSpace=wrap;html=1;aspect=fixed;direction=south;" parent="1" vertex="1">
          <mxGeometry x="-232.76" y="2010" width="30" height="30" as="geometry" />
        </mxCell>
        <mxCell id="a9ZtihEkZwW9otxZTu7b-97" style="edgeStyle=orthogonalEdgeStyle;rounded=0;orthogonalLoop=1;jettySize=auto;html=1;entryX=0.5;entryY=1;entryDx=0;entryDy=0;strokeColor=#FFFFFF;" parent="1" edge="1">
          <mxGeometry relative="1" as="geometry">
            <mxPoint x="-321" y="2024.92" as="sourcePoint" />
            <mxPoint x="-291" y="2024.92" as="targetPoint" />
          </mxGeometry>
        </mxCell>
        <mxCell id="a9ZtihEkZwW9otxZTu7b-98" style="edgeStyle=orthogonalEdgeStyle;rounded=0;orthogonalLoop=1;jettySize=auto;html=1;entryX=0.5;entryY=1;entryDx=0;entryDy=0;strokeColor=#FFFFFF;" parent="1" edge="1">
          <mxGeometry relative="1" as="geometry">
            <mxPoint x="-262.14" y="2024.92" as="sourcePoint" />
            <mxPoint x="-232.14" y="2024.92" as="targetPoint" />
          </mxGeometry>
        </mxCell>
        <mxCell id="a9ZtihEkZwW9otxZTu7b-99" style="edgeStyle=orthogonalEdgeStyle;rounded=0;orthogonalLoop=1;jettySize=auto;html=1;entryX=0.5;entryY=1;entryDx=0;entryDy=0;strokeColor=#FFFFFF;" parent="1" edge="1">
          <mxGeometry relative="1" as="geometry">
            <mxPoint x="-380.52" y="2024.92" as="sourcePoint" />
            <mxPoint x="-350.52" y="2024.92" as="targetPoint" />
          </mxGeometry>
        </mxCell>
        <mxCell id="a9ZtihEkZwW9otxZTu7b-100" value="" style="ellipse;whiteSpace=wrap;html=1;aspect=fixed;direction=south;" parent="1" vertex="1">
          <mxGeometry x="-410" y="2080" width="30" height="30" as="geometry" />
        </mxCell>
        <mxCell id="a9ZtihEkZwW9otxZTu7b-101" value="" style="ellipse;whiteSpace=wrap;html=1;aspect=fixed;direction=south;" parent="1" vertex="1">
          <mxGeometry x="-350.52" y="2080" width="30" height="30" as="geometry" />
        </mxCell>
        <mxCell id="a9ZtihEkZwW9otxZTu7b-102" value="" style="ellipse;whiteSpace=wrap;html=1;aspect=fixed;direction=south;" parent="1" vertex="1">
          <mxGeometry x="-291.14" y="2080" width="30" height="30" as="geometry" />
        </mxCell>
        <mxCell id="a9ZtihEkZwW9otxZTu7b-103" value="" style="ellipse;whiteSpace=wrap;html=1;aspect=fixed;direction=south;" parent="1" vertex="1">
          <mxGeometry x="-232.76" y="2080" width="30" height="30" as="geometry" />
        </mxCell>
        <mxCell id="a9ZtihEkZwW9otxZTu7b-104" style="edgeStyle=orthogonalEdgeStyle;rounded=0;orthogonalLoop=1;jettySize=auto;html=1;entryX=0.5;entryY=1;entryDx=0;entryDy=0;strokeColor=#FFFFFF;sketch=1;curveFitting=1;jiggle=2;" parent="1" edge="1">
          <mxGeometry relative="1" as="geometry">
            <mxPoint x="-321" y="2094.92" as="sourcePoint" />
            <mxPoint x="-291" y="2094.92" as="targetPoint" />
          </mxGeometry>
        </mxCell>
        <mxCell id="a9ZtihEkZwW9otxZTu7b-105" style="edgeStyle=orthogonalEdgeStyle;rounded=0;orthogonalLoop=1;jettySize=auto;html=1;entryX=0.5;entryY=1;entryDx=0;entryDy=0;strokeColor=#FFFFFF;sketch=1;curveFitting=1;jiggle=2;" parent="1" edge="1">
          <mxGeometry relative="1" as="geometry">
            <mxPoint x="-262.14" y="2094.92" as="sourcePoint" />
            <mxPoint x="-232.14" y="2094.92" as="targetPoint" />
          </mxGeometry>
        </mxCell>
        <mxCell id="a9ZtihEkZwW9otxZTu7b-106" style="edgeStyle=orthogonalEdgeStyle;rounded=0;orthogonalLoop=1;jettySize=auto;html=1;entryX=0.5;entryY=1;entryDx=0;entryDy=0;strokeColor=#FFFFFF;sketch=1;curveFitting=1;jiggle=2;" parent="1" edge="1">
          <mxGeometry relative="1" as="geometry">
            <mxPoint x="-380.52" y="2094.92" as="sourcePoint" />
            <mxPoint x="-350.52" y="2094.92" as="targetPoint" />
          </mxGeometry>
        </mxCell>
        <mxCell id="a9ZtihEkZwW9otxZTu7b-107" value="" style="ellipse;whiteSpace=wrap;html=1;aspect=fixed;direction=south;" parent="1" vertex="1">
          <mxGeometry x="-410" y="2160" width="30" height="30" as="geometry" />
        </mxCell>
        <mxCell id="a9ZtihEkZwW9otxZTu7b-108" value="" style="ellipse;whiteSpace=wrap;html=1;aspect=fixed;direction=south;" parent="1" vertex="1">
          <mxGeometry x="-350.52" y="2160" width="30" height="30" as="geometry" />
        </mxCell>
        <mxCell id="a9ZtihEkZwW9otxZTu7b-109" value="" style="ellipse;whiteSpace=wrap;html=1;aspect=fixed;direction=south;" parent="1" vertex="1">
          <mxGeometry x="-291.14" y="2160" width="30" height="30" as="geometry" />
        </mxCell>
        <mxCell id="a9ZtihEkZwW9otxZTu7b-110" value="" style="ellipse;whiteSpace=wrap;html=1;aspect=fixed;direction=south;" parent="1" vertex="1">
          <mxGeometry x="-232.76" y="2160" width="30" height="30" as="geometry" />
        </mxCell>
        <mxCell id="a9ZtihEkZwW9otxZTu7b-111" style="edgeStyle=orthogonalEdgeStyle;rounded=0;orthogonalLoop=1;jettySize=auto;html=1;entryX=0.5;entryY=1;entryDx=0;entryDy=0;strokeColor=#FFFFFF;sketch=1;curveFitting=1;jiggle=2;" parent="1" edge="1">
          <mxGeometry relative="1" as="geometry">
            <mxPoint x="-321" y="2174.92" as="sourcePoint" />
            <mxPoint x="-291" y="2174.92" as="targetPoint" />
          </mxGeometry>
        </mxCell>
        <mxCell id="a9ZtihEkZwW9otxZTu7b-112" style="edgeStyle=orthogonalEdgeStyle;rounded=0;orthogonalLoop=1;jettySize=auto;html=1;entryX=0.5;entryY=1;entryDx=0;entryDy=0;strokeColor=#FFFFFF;sketch=1;curveFitting=1;jiggle=2;" parent="1" edge="1">
          <mxGeometry relative="1" as="geometry">
            <mxPoint x="-262.14" y="2174.92" as="sourcePoint" />
            <mxPoint x="-232.14" y="2174.92" as="targetPoint" />
          </mxGeometry>
        </mxCell>
        <mxCell id="a9ZtihEkZwW9otxZTu7b-113" style="edgeStyle=orthogonalEdgeStyle;rounded=0;orthogonalLoop=1;jettySize=auto;html=1;entryX=0.5;entryY=1;entryDx=0;entryDy=0;strokeColor=#FFFFFF;sketch=1;curveFitting=1;jiggle=2;" parent="1" edge="1">
          <mxGeometry relative="1" as="geometry">
            <mxPoint x="-380.52" y="2174.92" as="sourcePoint" />
            <mxPoint x="-350.52" y="2174.92" as="targetPoint" />
          </mxGeometry>
        </mxCell>
        <mxCell id="a9ZtihEkZwW9otxZTu7b-114" value="" style="ellipse;whiteSpace=wrap;html=1;aspect=fixed;direction=south;" parent="1" vertex="1">
          <mxGeometry x="-410" y="2240" width="30" height="30" as="geometry" />
        </mxCell>
        <mxCell id="a9ZtihEkZwW9otxZTu7b-115" value="" style="ellipse;whiteSpace=wrap;html=1;aspect=fixed;direction=south;" parent="1" vertex="1">
          <mxGeometry x="-350.52" y="2240" width="30" height="30" as="geometry" />
        </mxCell>
        <mxCell id="a9ZtihEkZwW9otxZTu7b-116" value="" style="ellipse;whiteSpace=wrap;html=1;aspect=fixed;direction=south;" parent="1" vertex="1">
          <mxGeometry x="-291.14" y="2240" width="30" height="30" as="geometry" />
        </mxCell>
        <mxCell id="a9ZtihEkZwW9otxZTu7b-117" value="" style="ellipse;whiteSpace=wrap;html=1;aspect=fixed;direction=south;" parent="1" vertex="1">
          <mxGeometry x="-232.76" y="2240" width="30" height="30" as="geometry" />
        </mxCell>
        <mxCell id="a9ZtihEkZwW9otxZTu7b-118" style="edgeStyle=orthogonalEdgeStyle;rounded=0;orthogonalLoop=1;jettySize=auto;html=1;entryX=0.5;entryY=1;entryDx=0;entryDy=0;strokeColor=#FFFFFF;sketch=1;curveFitting=1;jiggle=2;" parent="1" edge="1">
          <mxGeometry relative="1" as="geometry">
            <mxPoint x="-321" y="2254.92" as="sourcePoint" />
            <mxPoint x="-291" y="2254.92" as="targetPoint" />
          </mxGeometry>
        </mxCell>
        <mxCell id="a9ZtihEkZwW9otxZTu7b-119" style="edgeStyle=orthogonalEdgeStyle;rounded=0;orthogonalLoop=1;jettySize=auto;html=1;entryX=0.5;entryY=1;entryDx=0;entryDy=0;strokeColor=#FFFFFF;sketch=1;curveFitting=1;jiggle=2;" parent="1" edge="1">
          <mxGeometry relative="1" as="geometry">
            <mxPoint x="-262.14" y="2254.92" as="sourcePoint" />
            <mxPoint x="-232.14" y="2254.92" as="targetPoint" />
          </mxGeometry>
        </mxCell>
        <mxCell id="a9ZtihEkZwW9otxZTu7b-120" style="edgeStyle=orthogonalEdgeStyle;rounded=0;orthogonalLoop=1;jettySize=auto;html=1;entryX=0.5;entryY=1;entryDx=0;entryDy=0;strokeColor=#FFFFFF;sketch=1;curveFitting=1;jiggle=2;" parent="1" edge="1">
          <mxGeometry relative="1" as="geometry">
            <mxPoint x="-380.52" y="2254.92" as="sourcePoint" />
            <mxPoint x="-350.52" y="2254.92" as="targetPoint" />
          </mxGeometry>
        </mxCell>
        <mxCell id="a9ZtihEkZwW9otxZTu7b-121" value="" style="ellipse;whiteSpace=wrap;html=1;aspect=fixed;direction=south;" parent="1" vertex="1">
          <mxGeometry x="-410" y="2310" width="30" height="30" as="geometry" />
        </mxCell>
        <mxCell id="a9ZtihEkZwW9otxZTu7b-122" value="" style="ellipse;whiteSpace=wrap;html=1;aspect=fixed;direction=south;" parent="1" vertex="1">
          <mxGeometry x="-350.52" y="2310" width="30" height="30" as="geometry" />
        </mxCell>
        <mxCell id="a9ZtihEkZwW9otxZTu7b-123" value="" style="ellipse;whiteSpace=wrap;html=1;aspect=fixed;direction=south;" parent="1" vertex="1">
          <mxGeometry x="-291.14" y="2310" width="30" height="30" as="geometry" />
        </mxCell>
        <mxCell id="a9ZtihEkZwW9otxZTu7b-124" value="" style="ellipse;whiteSpace=wrap;html=1;aspect=fixed;direction=south;" parent="1" vertex="1">
          <mxGeometry x="-232.76" y="2310" width="30" height="30" as="geometry" />
        </mxCell>
        <mxCell id="a9ZtihEkZwW9otxZTu7b-125" style="edgeStyle=orthogonalEdgeStyle;rounded=0;orthogonalLoop=1;jettySize=auto;html=1;entryX=0.5;entryY=1;entryDx=0;entryDy=0;strokeColor=#FFFFFF;sketch=1;curveFitting=1;jiggle=2;" parent="1" edge="1">
          <mxGeometry relative="1" as="geometry">
            <mxPoint x="-321" y="2324.92" as="sourcePoint" />
            <mxPoint x="-291" y="2324.92" as="targetPoint" />
          </mxGeometry>
        </mxCell>
        <mxCell id="a9ZtihEkZwW9otxZTu7b-126" style="edgeStyle=orthogonalEdgeStyle;rounded=0;orthogonalLoop=1;jettySize=auto;html=1;entryX=0.5;entryY=1;entryDx=0;entryDy=0;strokeColor=#FFFFFF;sketch=1;curveFitting=1;jiggle=2;" parent="1" edge="1">
          <mxGeometry relative="1" as="geometry">
            <mxPoint x="-262.14" y="2324.92" as="sourcePoint" />
            <mxPoint x="-232.14" y="2324.92" as="targetPoint" />
          </mxGeometry>
        </mxCell>
        <mxCell id="a9ZtihEkZwW9otxZTu7b-127" style="edgeStyle=orthogonalEdgeStyle;rounded=0;orthogonalLoop=1;jettySize=auto;html=1;entryX=0.5;entryY=1;entryDx=0;entryDy=0;strokeColor=#FFFFFF;sketch=1;curveFitting=1;jiggle=2;" parent="1" edge="1">
          <mxGeometry relative="1" as="geometry">
            <mxPoint x="-380.52" y="2324.92" as="sourcePoint" />
            <mxPoint x="-350.52" y="2324.92" as="targetPoint" />
          </mxGeometry>
        </mxCell>
        <mxCell id="a9ZtihEkZwW9otxZTu7b-128" value="" style="ellipse;whiteSpace=wrap;html=1;aspect=fixed;direction=south;" parent="1" vertex="1">
          <mxGeometry x="-410" y="2390" width="30" height="30" as="geometry" />
        </mxCell>
        <mxCell id="a9ZtihEkZwW9otxZTu7b-129" value="" style="ellipse;whiteSpace=wrap;html=1;aspect=fixed;direction=south;" parent="1" vertex="1">
          <mxGeometry x="-350.52" y="2390" width="30" height="30" as="geometry" />
        </mxCell>
        <mxCell id="a9ZtihEkZwW9otxZTu7b-130" value="" style="ellipse;whiteSpace=wrap;html=1;aspect=fixed;direction=south;" parent="1" vertex="1">
          <mxGeometry x="-291.14" y="2390" width="30" height="30" as="geometry" />
        </mxCell>
        <mxCell id="a9ZtihEkZwW9otxZTu7b-131" value="" style="ellipse;whiteSpace=wrap;html=1;aspect=fixed;direction=south;" parent="1" vertex="1">
          <mxGeometry x="-232.76" y="2390" width="30" height="30" as="geometry" />
        </mxCell>
        <mxCell id="a9ZtihEkZwW9otxZTu7b-132" style="edgeStyle=orthogonalEdgeStyle;rounded=0;orthogonalLoop=1;jettySize=auto;html=1;entryX=0.5;entryY=1;entryDx=0;entryDy=0;strokeColor=#FFFFFF;sketch=1;curveFitting=1;jiggle=2;" parent="1" edge="1">
          <mxGeometry relative="1" as="geometry">
            <mxPoint x="-321" y="2404.92" as="sourcePoint" />
            <mxPoint x="-291" y="2404.92" as="targetPoint" />
          </mxGeometry>
        </mxCell>
        <mxCell id="a9ZtihEkZwW9otxZTu7b-133" style="edgeStyle=orthogonalEdgeStyle;rounded=0;orthogonalLoop=1;jettySize=auto;html=1;entryX=0.5;entryY=1;entryDx=0;entryDy=0;strokeColor=#FFFFFF;sketch=1;curveFitting=1;jiggle=2;" parent="1" edge="1">
          <mxGeometry relative="1" as="geometry">
            <mxPoint x="-262.14" y="2404.92" as="sourcePoint" />
            <mxPoint x="-232.14" y="2404.92" as="targetPoint" />
          </mxGeometry>
        </mxCell>
        <mxCell id="a9ZtihEkZwW9otxZTu7b-134" style="edgeStyle=orthogonalEdgeStyle;rounded=0;orthogonalLoop=1;jettySize=auto;html=1;entryX=0.5;entryY=1;entryDx=0;entryDy=0;strokeColor=#FFFFFF;sketch=1;curveFitting=1;jiggle=2;" parent="1" edge="1">
          <mxGeometry relative="1" as="geometry">
            <mxPoint x="-380.52" y="2404.92" as="sourcePoint" />
            <mxPoint x="-350.52" y="2404.92" as="targetPoint" />
          </mxGeometry>
        </mxCell>
        <mxCell id="a9ZtihEkZwW9otxZTu7b-135" value="CRM" style="text;html=1;strokeColor=none;fillColor=none;align=center;verticalAlign=middle;whiteSpace=wrap;rounded=0;fontColor=#FFFFFF;fontFamily=Comic Sans MS;fontSize=30;sketch=1;curveFitting=1;jiggle=2;" parent="1" vertex="1">
          <mxGeometry x="774" y="2190" width="60" height="30" as="geometry" />
        </mxCell>
        <mxCell id="a9ZtihEkZwW9otxZTu7b-139" value="" style="ellipse;whiteSpace=wrap;html=1;aspect=fixed;direction=south;" parent="1" vertex="1">
          <mxGeometry x="886.76" y="2190" width="30" height="30" as="geometry" />
        </mxCell>
        <mxCell id="a9ZtihEkZwW9otxZTu7b-140" value="" style="ellipse;whiteSpace=wrap;html=1;aspect=fixed;direction=south;" parent="1" vertex="1">
          <mxGeometry x="946.24" y="2190" width="30" height="30" as="geometry" />
        </mxCell>
        <mxCell id="a9ZtihEkZwW9otxZTu7b-141" value="" style="ellipse;whiteSpace=wrap;html=1;aspect=fixed;direction=south;" parent="1" vertex="1">
          <mxGeometry x="1005.62" y="2190" width="30" height="30" as="geometry" />
        </mxCell>
        <mxCell id="a9ZtihEkZwW9otxZTu7b-142" value="" style="ellipse;whiteSpace=wrap;html=1;aspect=fixed;direction=south;" parent="1" vertex="1">
          <mxGeometry x="1064" y="2190" width="30" height="30" as="geometry" />
        </mxCell>
        <mxCell id="a9ZtihEkZwW9otxZTu7b-143" style="edgeStyle=orthogonalEdgeStyle;rounded=0;orthogonalLoop=1;jettySize=auto;html=1;entryX=0.5;entryY=1;entryDx=0;entryDy=0;strokeColor=#FFFFFF;sketch=1;curveFitting=1;jiggle=2;" parent="1" edge="1">
          <mxGeometry relative="1" as="geometry">
            <mxPoint x="975.76" y="2204.92" as="sourcePoint" />
            <mxPoint x="1005.76" y="2204.92" as="targetPoint" />
          </mxGeometry>
        </mxCell>
        <mxCell id="a9ZtihEkZwW9otxZTu7b-144" style="edgeStyle=orthogonalEdgeStyle;rounded=0;orthogonalLoop=1;jettySize=auto;html=1;entryX=0.5;entryY=1;entryDx=0;entryDy=0;strokeColor=#FFFFFF;sketch=1;curveFitting=1;jiggle=2;" parent="1" edge="1">
          <mxGeometry relative="1" as="geometry">
            <mxPoint x="1034.62" y="2204.92" as="sourcePoint" />
            <mxPoint x="1064.62" y="2204.92" as="targetPoint" />
          </mxGeometry>
        </mxCell>
        <mxCell id="a9ZtihEkZwW9otxZTu7b-145" style="edgeStyle=orthogonalEdgeStyle;rounded=0;orthogonalLoop=1;jettySize=auto;html=1;entryX=0.5;entryY=1;entryDx=0;entryDy=0;strokeColor=#FFFFFF;sketch=1;curveFitting=1;jiggle=2;" parent="1" edge="1">
          <mxGeometry relative="1" as="geometry">
            <mxPoint x="916.24" y="2204.92" as="sourcePoint" />
            <mxPoint x="946.24" y="2204.92" as="targetPoint" />
          </mxGeometry>
        </mxCell>
        <mxCell id="a9ZtihEkZwW9otxZTu7b-154" value="" style="edgeStyle=orthogonalEdgeStyle;rounded=0;orthogonalLoop=1;jettySize=auto;html=1;" parent="1" source="a9ZtihEkZwW9otxZTu7b-146" target="a9ZtihEkZwW9otxZTu7b-142" edge="1">
          <mxGeometry relative="1" as="geometry" />
        </mxCell>
        <mxCell id="a9ZtihEkZwW9otxZTu7b-146" value="" style="ellipse;whiteSpace=wrap;html=1;aspect=fixed;direction=south;fillColor=#006666;strokeColor=#00FFFF;" parent="1" vertex="1">
          <mxGeometry x="931.5" y="2240" width="30" height="30" as="geometry" />
        </mxCell>
        <mxCell id="a9ZtihEkZwW9otxZTu7b-147" style="edgeStyle=orthogonalEdgeStyle;rounded=0;orthogonalLoop=1;jettySize=auto;html=1;entryX=0.5;entryY=1;entryDx=0;entryDy=0;strokeColor=#00FFFF;sketch=1;curveFitting=1;jiggle=2;" parent="1" edge="1">
          <mxGeometry relative="1" as="geometry">
            <mxPoint x="961.5" y="2254.75" as="sourcePoint" />
            <mxPoint x="991.5" y="2254.75" as="targetPoint" />
          </mxGeometry>
        </mxCell>
        <mxCell id="a9ZtihEkZwW9otxZTu7b-149" value="" style="endArrow=classic;html=1;rounded=0;sketch=1;curveFitting=1;jiggle=2;strokeColor=#00FFFF;exitX=1;exitY=0;exitDx=0;exitDy=0;" parent="1" source="a9ZtihEkZwW9otxZTu7b-139" target="a9ZtihEkZwW9otxZTu7b-146" edge="1">
          <mxGeometry width="50" height="50" relative="1" as="geometry">
            <mxPoint x="900" y="2270" as="sourcePoint" />
            <mxPoint x="950" y="2220" as="targetPoint" />
          </mxGeometry>
        </mxCell>
        <mxCell id="a9ZtihEkZwW9otxZTu7b-155" value="" style="ellipse;whiteSpace=wrap;html=1;aspect=fixed;direction=south;fillColor=#006666;strokeColor=#00FFFF;" parent="1" vertex="1">
          <mxGeometry x="990.62" y="2240" width="30" height="30" as="geometry" />
        </mxCell>
        <mxCell id="a9ZtihEkZwW9otxZTu7b-156" style="edgeStyle=orthogonalEdgeStyle;rounded=0;orthogonalLoop=1;jettySize=auto;html=1;entryX=0.5;entryY=1;entryDx=0;entryDy=0;strokeColor=#00FFFF;sketch=1;curveFitting=1;jiggle=2;" parent="1" edge="1">
          <mxGeometry relative="1" as="geometry">
            <mxPoint x="1020.6199999999999" y="2254.75" as="sourcePoint" />
            <mxPoint x="1050.62" y="2254.75" as="targetPoint" />
          </mxGeometry>
        </mxCell>
        <mxCell id="a9ZtihEkZwW9otxZTu7b-157" value="" style="ellipse;whiteSpace=wrap;html=1;aspect=fixed;direction=south;fillColor=#006666;strokeColor=#00FFFF;" parent="1" vertex="1">
          <mxGeometry x="1050" y="2240" width="30" height="30" as="geometry" />
        </mxCell>
        <mxCell id="a9ZtihEkZwW9otxZTu7b-158" value="" style="ellipse;whiteSpace=wrap;html=1;aspect=fixed;direction=south;" parent="1" vertex="1">
          <mxGeometry x="1123.38" y="2190" width="30" height="30" as="geometry" />
        </mxCell>
        <mxCell id="a9ZtihEkZwW9otxZTu7b-159" style="edgeStyle=orthogonalEdgeStyle;rounded=0;orthogonalLoop=1;jettySize=auto;html=1;entryX=0.5;entryY=1;entryDx=0;entryDy=0;strokeColor=#FFFFFF;sketch=1;curveFitting=1;jiggle=2;" parent="1" edge="1">
          <mxGeometry relative="1" as="geometry">
            <mxPoint x="1094" y="2204.92" as="sourcePoint" />
            <mxPoint x="1124" y="2204.92" as="targetPoint" />
          </mxGeometry>
        </mxCell>
        <mxCell id="a9ZtihEkZwW9otxZTu7b-160" value="" style="ellipse;whiteSpace=wrap;html=1;aspect=fixed;direction=south;" parent="1" vertex="1">
          <mxGeometry x="1182.7600000000002" y="2190" width="30" height="30" as="geometry" />
        </mxCell>
        <mxCell id="a9ZtihEkZwW9otxZTu7b-161" style="edgeStyle=orthogonalEdgeStyle;rounded=0;orthogonalLoop=1;jettySize=auto;html=1;entryX=0.5;entryY=1;entryDx=0;entryDy=0;strokeColor=#FFFFFF;sketch=1;curveFitting=1;jiggle=2;" parent="1" edge="1">
          <mxGeometry relative="1" as="geometry">
            <mxPoint x="1153.38" y="2204.92" as="sourcePoint" />
            <mxPoint x="1183.38" y="2204.92" as="targetPoint" />
          </mxGeometry>
        </mxCell>
        <mxCell id="a9ZtihEkZwW9otxZTu7b-162" value="" style="ellipse;whiteSpace=wrap;html=1;aspect=fixed;direction=south;" parent="1" vertex="1">
          <mxGeometry x="1242.1400000000003" y="2190" width="30" height="30" as="geometry" />
        </mxCell>
        <mxCell id="a9ZtihEkZwW9otxZTu7b-163" style="edgeStyle=orthogonalEdgeStyle;rounded=0;orthogonalLoop=1;jettySize=auto;html=1;entryX=0.5;entryY=1;entryDx=0;entryDy=0;strokeColor=#FFFFFF;sketch=1;curveFitting=1;jiggle=2;" parent="1" edge="1">
          <mxGeometry relative="1" as="geometry">
            <mxPoint x="1212.7600000000002" y="2204.92" as="sourcePoint" />
            <mxPoint x="1242.7600000000002" y="2204.92" as="targetPoint" />
          </mxGeometry>
        </mxCell>
        <mxCell id="a9ZtihEkZwW9otxZTu7b-164" value="" style="endArrow=classic;html=1;rounded=0;sketch=1;curveFitting=1;jiggle=2;strokeColor=#00FFFF;exitX=0.5;exitY=0;exitDx=0;exitDy=0;" parent="1" source="a9ZtihEkZwW9otxZTu7b-157" target="a9ZtihEkZwW9otxZTu7b-158" edge="1">
          <mxGeometry width="50" height="50" relative="1" as="geometry">
            <mxPoint x="1080" y="2260" as="sourcePoint" />
            <mxPoint x="1105" y="2288" as="targetPoint" />
          </mxGeometry>
        </mxCell>
        <mxCell id="a9ZtihEkZwW9otxZTu7b-165" value="&lt;font&gt;shell&lt;/font&gt;" style="text;html=1;strokeColor=none;fillColor=none;align=center;verticalAlign=middle;whiteSpace=wrap;rounded=0;fontColor=#00FFFF;fontFamily=Comic Sans MS;fontSize=30;sketch=1;curveFitting=1;jiggle=2;" parent="1" vertex="1">
          <mxGeometry x="840" y="2240" width="60" height="30" as="geometry" />
        </mxCell>
        <mxCell id="a9ZtihEkZwW9otxZTu7b-166" value="ui" style="text;html=1;strokeColor=none;fillColor=none;align=center;verticalAlign=middle;whiteSpace=wrap;rounded=0;fontColor=#33FF33;fontFamily=Comic Sans MS;fontSize=30;sketch=1;curveFitting=1;jiggle=2;" parent="1" vertex="1">
          <mxGeometry x="930" y="2130" width="60" height="30" as="geometry" />
        </mxCell>
        <mxCell id="a9ZtihEkZwW9otxZTu7b-167" value="" style="ellipse;whiteSpace=wrap;html=1;aspect=fixed;direction=south;fillColor=#006600;strokeColor=#33FF33;" parent="1" vertex="1">
          <mxGeometry x="1009.5" y="2134" width="30" height="30" as="geometry" />
        </mxCell>
        <mxCell id="a9ZtihEkZwW9otxZTu7b-168" style="edgeStyle=orthogonalEdgeStyle;rounded=0;orthogonalLoop=1;jettySize=auto;html=1;entryX=0.5;entryY=1;entryDx=0;entryDy=0;strokeColor=#33FF33;sketch=1;curveFitting=1;jiggle=2;" parent="1" edge="1">
          <mxGeometry relative="1" as="geometry">
            <mxPoint x="1039.5" y="2148.75" as="sourcePoint" />
            <mxPoint x="1069.5" y="2148.75" as="targetPoint" />
          </mxGeometry>
        </mxCell>
        <mxCell id="a9ZtihEkZwW9otxZTu7b-169" value="" style="endArrow=classic;html=1;rounded=0;sketch=1;curveFitting=1;jiggle=2;strokeColor=#33FF33;exitX=0;exitY=0;exitDx=0;exitDy=0;entryX=1;entryY=1;entryDx=0;entryDy=0;" parent="1" source="a9ZtihEkZwW9otxZTu7b-140" target="a9ZtihEkZwW9otxZTu7b-167" edge="1">
          <mxGeometry width="50" height="50" relative="1" as="geometry">
            <mxPoint x="990" y="2110" as="sourcePoint" />
            <mxPoint x="1028" y="2114" as="targetPoint" />
          </mxGeometry>
        </mxCell>
        <mxCell id="a9ZtihEkZwW9otxZTu7b-170" value="" style="ellipse;whiteSpace=wrap;html=1;aspect=fixed;direction=south;fillColor=#006633;strokeColor=#33FF33;" parent="1" vertex="1">
          <mxGeometry x="1068.62" y="2134" width="30" height="30" as="geometry" />
        </mxCell>
        <mxCell id="a9ZtihEkZwW9otxZTu7b-171" value="" style="endArrow=classic;html=1;rounded=0;sketch=1;curveFitting=1;jiggle=2;strokeColor=#33FF33;exitX=0;exitY=0;exitDx=0;exitDy=0;" parent="1" target="a9ZtihEkZwW9otxZTu7b-158" edge="1">
          <mxGeometry width="50" height="50" relative="1" as="geometry">
            <mxPoint x="1094" y="2160" as="sourcePoint" />
            <mxPoint x="1136" y="2126" as="targetPoint" />
          </mxGeometry>
        </mxCell>
        <mxCell id="a9ZtihEkZwW9otxZTu7b-172" value="" style="endArrow=none;dashed=1;html=1;dashPattern=1 3;strokeWidth=2;rounded=0;strokeColor=#FFFFFF;" parent="1" edge="1">
          <mxGeometry width="50" height="50" relative="1" as="geometry">
            <mxPoint x="-558" y="2840" as="sourcePoint" />
            <mxPoint x="1282" y="2840" as="targetPoint" />
          </mxGeometry>
        </mxCell>
        <mxCell id="a9ZtihEkZwW9otxZTu7b-173" value="&lt;font color=&quot;#ffffff&quot; style=&quot;font-size: 30px; background-color: rgb(0, 0, 0);&quot; face=&quot;Comic Sans MS&quot;&gt;&amp;nbsp; SUMMARY&amp;nbsp;&amp;nbsp;&lt;/font&gt;" style="text;html=1;align=center;verticalAlign=middle;resizable=0;points=[];autosize=1;strokeColor=none;fillColor=none;" parent="1" vertex="1">
          <mxGeometry x="202" y="2811" width="220" height="50" as="geometry" />
        </mxCell>
        <mxCell id="a9ZtihEkZwW9otxZTu7b-175" value="PROS:&lt;br&gt;&lt;ul&gt;&lt;li&gt;Runtime dependencies&lt;/li&gt;&lt;li&gt;Полная изоляция кода&lt;/li&gt;&lt;li&gt;При отпадении сервиса - падает НЕ все приложение&lt;/li&gt;&lt;li&gt;Можно использовать разные технологии на разных МФ&lt;/li&gt;&lt;/ul&gt;&lt;div&gt;&lt;br&gt;&lt;/div&gt;&lt;div&gt;&lt;font color=&quot;#ff3333&quot;&gt;&lt;br&gt;&lt;/font&gt;&lt;/div&gt;&lt;div&gt;&lt;font color=&quot;#ff3333&quot;&gt;&lt;br&gt;&lt;/font&gt;&lt;/div&gt;&lt;div&gt;&lt;font color=&quot;#ff3333&quot;&gt;&lt;br&gt;&lt;/font&gt;&lt;/div&gt;&lt;div&gt;&lt;font color=&quot;#ff3333&quot;&gt;&lt;br&gt;&lt;/font&gt;&lt;/div&gt;&lt;div&gt;&lt;font color=&quot;#ff3333&quot;&gt;CONS:&lt;br style=&quot;border-color: var(--border-color);&quot;&gt;&lt;ul&gt;&lt;li&gt;&lt;span style=&quot;color: rgb(255, 51, 51); background-color: initial;&quot;&gt;TS не передается в Runtime&lt;/span&gt;&lt;/li&gt;&lt;li&gt;&lt;span style=&quot;color: rgb(255, 51, 51); background-color: initial;&quot;&gt;Нужно следить за версионированием&lt;/span&gt;&lt;/li&gt;&lt;li&gt;&lt;span style=&quot;color: rgb(255, 51, 51); background-color: initial;&quot;&gt;Потенциальное дублирование кода&lt;/span&gt;&lt;/li&gt;&lt;li&gt;&lt;span style=&quot;color: rgb(255, 51, 51); background-color: initial;&quot;&gt;Не все разработчики смогут поднять новый МФ, если понадобится (относительно сложный конфиг)&lt;/span&gt;&lt;/li&gt;&lt;li&gt;&lt;span style=&quot;color: rgb(255, 51, 51); background-color: initial;&quot;&gt;Чтобы реализовать более стабильную работу приложения - надо размещать МФ на отдельные серверы&lt;/span&gt;&lt;/li&gt;&lt;/ul&gt;&lt;/font&gt;&lt;/div&gt;" style="text;html=1;strokeColor=none;fillColor=none;align=left;verticalAlign=top;whiteSpace=wrap;rounded=0;fontColor=#FF33FF;fontFamily=Comic Sans MS;fontSize=30;sketch=1;curveFitting=1;jiggle=2;" parent="1" vertex="1">
          <mxGeometry x="-564.76" y="2901" width="884.76" height="619" as="geometry" />
        </mxCell>
        <mxCell id="a9ZtihEkZwW9otxZTu7b-176" value="&lt;font color=&quot;#00ffff&quot;&gt;&amp;nbsp;PROS:&lt;br&gt;&lt;ul&gt;&lt;li&gt;&lt;span style=&quot;color: rgb(0, 255, 255); background-color: initial;&quot;&gt;Build time dependencies -&amp;gt; easy TS share&lt;/span&gt;&lt;/li&gt;&lt;li&gt;Не надо следить за версионированием, обновление всех зависимостей проекта делается 1 командой&lt;/li&gt;&lt;li&gt;Более простое переиспользование кода&lt;/li&gt;&lt;li&gt;Легко масштабировать (простой конфиг)&lt;/li&gt;&lt;li&gt;Довольно легко при необходимости подключить Runtime dependencies&lt;/li&gt;&lt;li&gt;Есть возможность совмещать Runtime и Build time&lt;/li&gt;&lt;/ul&gt;&lt;/font&gt;&lt;div&gt;&lt;br&gt;&lt;/div&gt;&lt;div&gt;&lt;font color=&quot;#ff3333&quot;&gt;CONS:&lt;br style=&quot;border-color: var(--border-color);&quot;&gt;&lt;ul&gt;&lt;li&gt;Не умеет подхватывать изменения в релизе налету, надо каждый раз прогонять все приложение через CI/CD&lt;/li&gt;&lt;li&gt;Один гит репозиторий с кучей веток - нужен более осмысленный подход к гиту, к коммитам. Возможно мердж реквесты и ревью.&lt;/li&gt;&lt;li&gt;Условная изоляция кода&lt;/li&gt;&lt;/ul&gt;&lt;/font&gt;&lt;/div&gt;" style="text;html=1;strokeColor=none;fillColor=none;align=left;verticalAlign=top;whiteSpace=wrap;rounded=0;fontColor=#FF33FF;fontFamily=Comic Sans MS;fontSize=30;sketch=1;curveFitting=1;jiggle=2;" parent="1" vertex="1">
          <mxGeometry x="410" y="2901" width="884.76" height="619" as="geometry" />
        </mxCell>
        <mxCell id="oeH1kBzqCfmbSRRTplyL-1" value="" style="endArrow=none;dashed=1;html=1;dashPattern=1 3;strokeWidth=2;rounded=0;strokeColor=#FFFFFF;" parent="1" edge="1">
          <mxGeometry width="50" height="50" relative="1" as="geometry">
            <mxPoint x="-557" y="3800" as="sourcePoint" />
            <mxPoint x="1283" y="3800" as="targetPoint" />
          </mxGeometry>
        </mxCell>
        <mxCell id="oeH1kBzqCfmbSRRTplyL-2" value="&lt;font color=&quot;#ffffff&quot; style=&quot;font-size: 30px; background-color: rgb(0, 0, 0);&quot; face=&quot;Comic Sans MS&quot;&gt;&amp;nbsp; FOG OF WAR&amp;nbsp;&amp;nbsp;&lt;/font&gt;" style="text;html=1;align=center;verticalAlign=middle;resizable=0;points=[];autosize=1;strokeColor=none;fillColor=none;" parent="1" vertex="1">
          <mxGeometry x="188" y="3771" width="250" height="50" as="geometry" />
        </mxCell>
        <mxCell id="oeH1kBzqCfmbSRRTplyL-3" value="&lt;font&gt;В обеих концепциях хотелось бы понимать следующее:&lt;br&gt;&lt;/font&gt;&lt;ul style=&quot;&quot;&gt;&lt;li style=&quot;&quot;&gt;&lt;font style=&quot;border-color: var(--border-color); background-color: initial;&quot;&gt;Как разделить &lt;font color=&quot;#ffff33&quot;&gt;State&lt;/font&gt; на глобальный и локальный (&lt;/font&gt;&lt;font color=&quot;#ffff33&quot; style=&quot;border-color: var(--border-color); background-color: initial;&quot;&gt;zustand&lt;/font&gt;&lt;font style=&quot;border-color: var(--border-color); background-color: initial;&quot;&gt;&lt;font&gt;?)&lt;/font&gt;&lt;br&gt;&lt;font style=&quot;border-color: var(--border-color); background-color: initial;&quot;&gt;пока что используется&amp;nbsp;&lt;/font&gt;&lt;font style=&quot;border-color: var(--border-color); background-color: initial;&quot;&gt;&lt;font color=&quot;#ffff00&quot;&gt;combibeReducers&lt;/font&gt;&lt;br&gt;&lt;/font&gt;&lt;font color=&quot;#ff9933&quot;&gt;стейт каждого модуля надо регистрировать в общем стейте&lt;/font&gt;&lt;br&gt;&lt;br&gt;&lt;/font&gt;&lt;/li&gt;&lt;li style=&quot;&quot;&gt;&lt;font style=&quot;border-color: var(--border-color); background-color: initial;&quot;&gt;&lt;font&gt;Как разделить &lt;font color=&quot;#ffff00&quot;&gt;RTK Query API&lt;/font&gt;?&lt;/font&gt;&lt;br&gt;&lt;font style=&quot;border-color: var(--border-color); background-color: initial;&quot;&gt;пока что делается &lt;/font&gt;&lt;font color=&quot;#ffff00&quot;&gt;&lt;font style=&quot;border-color: var(--border-color); background-color: initial;&quot;&gt;глобальный&lt;/font&gt;&lt;font style=&quot;border-color: var(--border-color); background-color: initial;&quot;&gt;&amp;nbsp;&lt;/font&gt;&lt;/font&gt;&lt;font&gt;&lt;font color=&quot;#ffff00&quot; style=&quot;border-color: var(--border-color); background-color: initial;&quot;&gt;createAPI&lt;/font&gt;&lt;font style=&quot;border-color: var(--border-color); background-color: initial;&quot;&gt;&amp;nbsp;&lt;/font&gt;&lt;/font&gt;&lt;font style=&quot;border-color: var(--border-color); background-color: initial;&quot;&gt;и в него инжектятся локальные API&lt;br&gt;&lt;/font&gt;&lt;font color=&quot;#ff9933&quot;&gt;API каждого модуля надо регистрировать в общем API&lt;br&gt;&lt;br&gt;&lt;/font&gt;&lt;/font&gt;&lt;/li&gt;&lt;li style=&quot;&quot;&gt;Как перенести монолит на любую из этих архитектур, ничего не сломав.&lt;br&gt;Как выдирать из монолита куски и делать их модулями: модули будут хотеть от &lt;font color=&quot;#ffff00&quot;&gt;shell&lt;/font&gt; того, чего в &lt;font color=&quot;#ffff00&quot;&gt;shell&lt;/font&gt; быть не должно.&lt;br&gt;&lt;br&gt;&lt;/li&gt;&lt;li style=&quot;&quot;&gt;&lt;font color=&quot;#ffff33&quot;&gt;Прочие вещи&lt;/font&gt;, которые с макро-позиции не видны, но могут всплыть &lt;font color=&quot;#ffff33&quot;&gt;во время конкретики&lt;/font&gt;.&lt;br&gt;Они ничего не сломают, но могу на какое-то время 1 раз за всю историю замедлить разработку.&lt;/li&gt;&lt;/ul&gt;" style="text;html=1;strokeColor=none;fillColor=none;align=left;verticalAlign=top;whiteSpace=wrap;rounded=0;fontColor=#808080;fontFamily=Comic Sans MS;fontSize=30;sketch=1;curveFitting=1;jiggle=2;" parent="1" vertex="1">
          <mxGeometry x="-540" y="3860" width="1380" height="750" as="geometry" />
        </mxCell>
        <mxCell id="SMNemmRvqjc8gFhwl8cE-1" value="&lt;h3&gt;&lt;font face=&quot;Comic Sans MS&quot;&gt;APPS&lt;/font&gt;&lt;/h3&gt;" style="swimlane;whiteSpace=wrap;html=1;sketch=1;startSize=50;fillColor=#336600;strokeColor=#80FF00;fontColor=#ffffff;" vertex="1" parent="1">
          <mxGeometry x="-30" y="5750" width="380" height="400" as="geometry" />
        </mxCell>
        <mxCell id="SMNemmRvqjc8gFhwl8cE-2" value="&lt;h3&gt;SHELL&lt;/h3&gt;" style="rounded=0;whiteSpace=wrap;html=1;sketch=1;fontFamily=Comic Sans MS;fillColor=#006633;strokeColor=#00FF80;fontColor=#FFFFFF;" vertex="1" parent="SMNemmRvqjc8gFhwl8cE-1">
          <mxGeometry x="40" y="90" width="300" height="60" as="geometry" />
        </mxCell>
        <mxCell id="SMNemmRvqjc8gFhwl8cE-3" value="&lt;h3&gt;MAIN&lt;/h3&gt;" style="rounded=0;whiteSpace=wrap;html=1;sketch=1;fontFamily=Comic Sans MS;fillColor=#006633;strokeColor=#00FF80;fontColor=#FFFFFF;" vertex="1" parent="SMNemmRvqjc8gFhwl8cE-1">
          <mxGeometry x="40" y="190" width="300" height="60" as="geometry" />
        </mxCell>
        <mxCell id="SMNemmRvqjc8gFhwl8cE-4" value="&lt;h3&gt;...&lt;/h3&gt;" style="rounded=0;whiteSpace=wrap;html=1;sketch=1;fontFamily=Comic Sans MS;fillColor=#006633;strokeColor=#00FF80;fontColor=#FFFFFF;" vertex="1" parent="SMNemmRvqjc8gFhwl8cE-1">
          <mxGeometry x="40" y="290" width="300" height="60" as="geometry" />
        </mxCell>
        <mxCell id="SMNemmRvqjc8gFhwl8cE-5" value="&lt;h3&gt;&lt;font face=&quot;Comic Sans MS&quot;&gt;LIBS&lt;/font&gt;&lt;/h3&gt;" style="swimlane;whiteSpace=wrap;html=1;sketch=1;startSize=50;fillColor=#660066;strokeColor=#FF00FF;fontColor=#ffffff;" vertex="1" parent="1">
          <mxGeometry x="500" y="5750" width="400" height="400" as="geometry" />
        </mxCell>
        <mxCell id="SMNemmRvqjc8gFhwl8cE-6" value="&lt;h3&gt;STATE&lt;/h3&gt;" style="rounded=0;whiteSpace=wrap;html=1;sketch=1;fontFamily=Comic Sans MS;fillColor=#003366;strokeColor=#007FFF;fontColor=#ffffff;" vertex="1" parent="SMNemmRvqjc8gFhwl8cE-5">
          <mxGeometry x="50" y="90" width="300" height="60" as="geometry" />
        </mxCell>
        <mxCell id="SMNemmRvqjc8gFhwl8cE-7" style="edgeStyle=none;sketch=1;html=1;exitX=0.5;exitY=0;exitDx=0;exitDy=0;entryX=0.5;entryY=1;entryDx=0;entryDy=0;strokeColor=#FFFF00;fontFamily=Comic Sans MS;fontSize=20;fontColor=#FFFFFF;" edge="1" parent="SMNemmRvqjc8gFhwl8cE-5" source="SMNemmRvqjc8gFhwl8cE-8" target="SMNemmRvqjc8gFhwl8cE-6">
          <mxGeometry relative="1" as="geometry" />
        </mxCell>
        <mxCell id="SMNemmRvqjc8gFhwl8cE-8" value="&lt;h3&gt;API&lt;/h3&gt;" style="rounded=0;whiteSpace=wrap;html=1;sketch=1;fontFamily=Comic Sans MS;fillColor=#666600;strokeColor=#FFFF33;fontColor=#ffffff;" vertex="1" parent="SMNemmRvqjc8gFhwl8cE-5">
          <mxGeometry x="50" y="190" width="300" height="60" as="geometry" />
        </mxCell>
        <mxCell id="SMNemmRvqjc8gFhwl8cE-9" value="&lt;h3&gt;UI&lt;/h3&gt;" style="rounded=0;whiteSpace=wrap;html=1;sketch=1;fontFamily=Comic Sans MS;fillColor=#660000;strokeColor=#FF0000;fontColor=#ffffff;" vertex="1" parent="SMNemmRvqjc8gFhwl8cE-5">
          <mxGeometry x="50" y="290" width="300" height="60" as="geometry" />
        </mxCell>
        <mxCell id="SMNemmRvqjc8gFhwl8cE-10" value="&lt;h3&gt;&lt;font face=&quot;Comic Sans MS&quot;&gt;STATE&lt;/font&gt;&lt;/h3&gt;" style="swimlane;whiteSpace=wrap;html=1;sketch=1;startSize=50;fillColor=#003366;strokeColor=#007FFF;fontColor=#ffffff;" vertex="1" parent="1">
          <mxGeometry x="1070" y="5010" width="950" height="1140" as="geometry" />
        </mxCell>
        <mxCell id="SMNemmRvqjc8gFhwl8cE-11" value="&lt;h1&gt;&lt;b&gt;PROVIDER&lt;/b&gt;&lt;/h1&gt;" style="text;html=1;align=center;verticalAlign=middle;resizable=0;points=[];autosize=1;strokeColor=none;fillColor=none;fontFamily=Comic Sans MS;fontColor=#FFFFFF;" vertex="1" parent="SMNemmRvqjc8gFhwl8cE-10">
          <mxGeometry x="40" y="920" width="150" height="70" as="geometry" />
        </mxCell>
        <mxCell id="SMNemmRvqjc8gFhwl8cE-12" value="&lt;h1&gt;&lt;b&gt;STORE&lt;/b&gt;&lt;/h1&gt;" style="text;html=1;align=center;verticalAlign=middle;resizable=0;points=[];autosize=1;strokeColor=none;fillColor=none;fontFamily=Comic Sans MS;fontColor=#FFFFFF;" vertex="1" parent="SMNemmRvqjc8gFhwl8cE-10">
          <mxGeometry x="40" y="80" width="110" height="70" as="geometry" />
        </mxCell>
        <mxCell id="SMNemmRvqjc8gFhwl8cE-13" value="&lt;h1&gt;&lt;b&gt;HOOK&lt;/b&gt;&lt;/h1&gt;" style="text;html=1;align=center;verticalAlign=middle;resizable=0;points=[];autosize=1;strokeColor=none;fillColor=none;fontFamily=Comic Sans MS;fontColor=#FFFFFF;" vertex="1" parent="SMNemmRvqjc8gFhwl8cE-10">
          <mxGeometry x="40" y="560" width="90" height="70" as="geometry" />
        </mxCell>
        <mxCell id="SMNemmRvqjc8gFhwl8cE-14" value="&lt;div style=&quot;border-color: rgb(0, 0, 0); color: rgb(248, 248, 242); font-family: Consolas, &amp;quot;Courier New&amp;quot;, monospace; font-size: 20px; font-style: normal; font-variant-ligatures: normal; font-variant-caps: normal; font-weight: 400; letter-spacing: normal; orphans: 2; text-align: left; text-indent: 0px; text-transform: none; widows: 2; word-spacing: 0px; -webkit-text-stroke-width: 0px; text-decoration-thickness: initial; text-decoration-style: initial; text-decoration-color: initial;&quot;&gt;&lt;div style=&quot;border-color: rgb(0, 0, 0); line-height: 19px; font-size: 20px;&quot;&gt;&lt;span style=&quot;border-color: rgb(0, 0, 0); color: rgb(249, 38, 114); font-size: 20px;&quot;&gt;import&lt;/span&gt;&lt;span style=&quot;font-size: 20px;&quot;&gt;&amp;nbsp;&lt;/span&gt;{&amp;nbsp;&lt;span style=&quot;border-color: rgb(0, 0, 0); color: rgb(166, 226, 46); font-size: 20px;&quot;&gt;mainSlice&amp;nbsp;&lt;/span&gt;}&lt;span style=&quot;font-size: 20px;&quot;&gt;&amp;nbsp;&lt;/span&gt;&lt;span style=&quot;border-color: rgb(0, 0, 0); color: rgb(249, 38, 114); font-size: 20px;&quot;&gt;from&lt;/span&gt;&lt;span style=&quot;font-size: 20px;&quot;&gt;&amp;nbsp;&lt;/span&gt;&lt;span style=&quot;border-color: rgb(0, 0, 0); color: rgb(230, 219, 116); font-size: 20px;&quot;&gt;&quot;@page/main&quot;&lt;/span&gt;;&lt;br style=&quot;border-color: rgb(0, 0, 0); font-size: 20px;&quot;&gt;&lt;span style=&quot;border-color: rgb(0, 0, 0); color: rgb(249, 38, 114); font-size: 20px;&quot;&gt;import&lt;/span&gt;&amp;nbsp;{&amp;nbsp;&lt;span style=&quot;border-color: rgb(0, 0, 0); color: rgb(166, 226, 46); font-size: 20px;&quot;&gt;apiBack&amp;nbsp;&lt;/span&gt;}&amp;nbsp;&lt;span style=&quot;border-color: rgb(0, 0, 0); color: rgb(249, 38, 114); font-size: 20px;&quot;&gt;from&lt;/span&gt;&amp;nbsp;&lt;span style=&quot;border-color: rgb(0, 0, 0); color: rgb(230, 219, 116); font-size: 20px;&quot;&gt;&quot;@shared/api&quot;&lt;/span&gt;;&lt;br style=&quot;border-color: rgb(0, 0, 0); font-size: 20px;&quot;&gt;&lt;/div&gt;&lt;/div&gt;&lt;div style=&quot;border-color: rgb(0, 0, 0); color: rgb(248, 248, 242); font-family: Consolas, &amp;quot;Courier New&amp;quot;, monospace; font-size: 20px; font-style: normal; font-variant-ligatures: normal; font-variant-caps: normal; font-weight: 400; letter-spacing: normal; orphans: 2; text-align: left; text-indent: 0px; text-transform: none; widows: 2; word-spacing: 0px; -webkit-text-stroke-width: 0px; text-decoration-thickness: initial; text-decoration-style: initial; text-decoration-color: initial;&quot;&gt;&lt;span style=&quot;border-color: rgb(0, 0, 0); color: rgb(102, 217, 239); font-style: italic; font-size: 20px;&quot;&gt;&lt;br style=&quot;border-color: rgb(0, 0, 0); font-size: 20px;&quot;&gt;&lt;/span&gt;&lt;/div&gt;&lt;div style=&quot;border-color: rgb(0, 0, 0); color: rgb(248, 248, 242); font-family: Consolas, &amp;quot;Courier New&amp;quot;, monospace; font-size: 20px; font-style: normal; font-variant-ligatures: normal; font-variant-caps: normal; font-weight: 400; letter-spacing: normal; orphans: 2; text-align: left; text-indent: 0px; text-transform: none; widows: 2; word-spacing: 0px; -webkit-text-stroke-width: 0px; text-decoration-thickness: initial; text-decoration-style: initial; text-decoration-color: initial;&quot;&gt;&lt;span style=&quot;border-color: rgb(0, 0, 0); color: rgb(102, 217, 239); font-style: italic; font-size: 20px;&quot;&gt;const&lt;/span&gt;&lt;span style=&quot;font-size: 20px;&quot;&gt;&amp;nbsp;&lt;/span&gt;store&lt;span style=&quot;font-size: 20px;&quot;&gt;&amp;nbsp;&lt;/span&gt;&lt;span style=&quot;border-color: rgb(0, 0, 0); color: rgb(249, 38, 114); font-size: 20px;&quot;&gt;=&lt;/span&gt;&lt;span style=&quot;font-size: 20px;&quot;&gt;&amp;nbsp;&lt;/span&gt;&lt;span style=&quot;border-color: rgb(0, 0, 0); color: rgb(166, 226, 46); font-size: 20px;&quot;&gt;configureStore&lt;/span&gt;({&lt;/div&gt;&lt;div style=&quot;border-color: rgb(0, 0, 0); color: rgb(248, 248, 242); font-family: Consolas, &amp;quot;Courier New&amp;quot;, monospace; font-size: 20px; font-style: normal; font-variant-ligatures: normal; font-variant-caps: normal; font-weight: 400; letter-spacing: normal; orphans: 2; text-align: left; text-indent: 0px; text-transform: none; widows: 2; word-spacing: 0px; -webkit-text-stroke-width: 0px; text-decoration-thickness: initial; text-decoration-style: initial; text-decoration-color: initial;&quot;&gt;&amp;nbsp;&lt;span style=&quot;font-size: 20px;&quot;&gt;&amp;nbsp;&lt;/span&gt;&lt;span style=&quot;border-color: rgb(0, 0, 0); color: rgb(166, 226, 46); font-size: 20px;&quot;&gt;reducer&lt;/span&gt;:&lt;span style=&quot;font-size: 20px;&quot;&gt;&amp;nbsp;&lt;/span&gt;&lt;span style=&quot;border-color: rgb(0, 0, 0); color: rgb(166, 226, 46); font-size: 20px;&quot;&gt;combineReducers({&lt;/span&gt;&lt;/div&gt;&lt;div style=&quot;border-color: rgb(0, 0, 0); color: rgb(248, 248, 242); font-family: Consolas, &amp;quot;Courier New&amp;quot;, monospace; font-size: 20px; font-style: normal; font-variant-ligatures: normal; font-variant-caps: normal; font-weight: 400; letter-spacing: normal; orphans: 2; text-align: left; text-indent: 0px; text-transform: none; widows: 2; word-spacing: 0px; -webkit-text-stroke-width: 0px; text-decoration-thickness: initial; text-decoration-style: initial; text-decoration-color: initial;&quot;&gt;&lt;span style=&quot;border-color: rgb(0, 0, 0); color: rgb(166, 226, 46); font-size: 20px;&quot;&gt;&amp;nbsp; &amp;nbsp; main: mainSlice.reducer;&lt;br style=&quot;border-color: rgb(0, 0, 0); font-size: 20px;&quot;&gt;&amp;nbsp; })&lt;/span&gt;,&lt;/div&gt;&lt;div style=&quot;border-color: rgb(0, 0, 0); color: rgb(248, 248, 242); font-family: Consolas, &amp;quot;Courier New&amp;quot;, monospace; font-size: 20px; font-style: normal; font-variant-ligatures: normal; font-variant-caps: normal; font-weight: 400; letter-spacing: normal; orphans: 2; text-align: left; text-indent: 0px; text-transform: none; widows: 2; word-spacing: 0px; -webkit-text-stroke-width: 0px; text-decoration-thickness: initial; text-decoration-style: initial; text-decoration-color: initial;&quot;&gt;&amp;nbsp;&lt;span style=&quot;font-size: 20px;&quot;&gt;&amp;nbsp;&lt;/span&gt;&lt;span style=&quot;border-color: rgb(0, 0, 0); color: rgb(166, 226, 46); font-size: 20px;&quot;&gt;middleware&lt;/span&gt;: (&lt;span style=&quot;border-color: rgb(0, 0, 0); color: rgb(166, 226, 46); font-size: 20px;&quot;&gt;getDefaultMiddleware&lt;/span&gt;)&lt;span style=&quot;font-size: 20px;&quot;&gt;&amp;nbsp;&lt;/span&gt;&lt;span style=&quot;border-color: rgb(0, 0, 0); color: rgb(102, 217, 239); font-style: italic; font-size: 20px;&quot;&gt;=&amp;gt;&lt;/span&gt;&lt;/div&gt;&lt;div style=&quot;border-color: rgb(0, 0, 0); color: rgb(248, 248, 242); font-family: Consolas, &amp;quot;Courier New&amp;quot;, monospace; font-size: 20px; font-style: normal; font-variant-ligatures: normal; font-variant-caps: normal; font-weight: 400; letter-spacing: normal; orphans: 2; text-align: left; text-indent: 0px; text-transform: none; widows: 2; word-spacing: 0px; -webkit-text-stroke-width: 0px; text-decoration-thickness: initial; text-decoration-style: initial; text-decoration-color: initial;&quot;&gt;&amp;nbsp; &amp;nbsp;&lt;span style=&quot;font-size: 20px;&quot;&gt;&amp;nbsp;&lt;/span&gt;&lt;span style=&quot;border-color: rgb(0, 0, 0); color: rgb(166, 226, 46); font-size: 20px;&quot;&gt;getDefaultMiddleware&lt;/span&gt;({&lt;/div&gt;&lt;div style=&quot;border-color: rgb(0, 0, 0); color: rgb(248, 248, 242); font-family: Consolas, &amp;quot;Courier New&amp;quot;, monospace; font-size: 20px; font-style: normal; font-variant-ligatures: normal; font-variant-caps: normal; font-weight: 400; letter-spacing: normal; orphans: 2; text-align: left; text-indent: 0px; text-transform: none; widows: 2; word-spacing: 0px; -webkit-text-stroke-width: 0px; text-decoration-thickness: initial; text-decoration-style: initial; text-decoration-color: initial;&quot;&gt;&amp;nbsp; &amp;nbsp; &amp;nbsp; serializableCheck:&lt;span style=&quot;font-size: 20px;&quot;&gt;&amp;nbsp;&lt;/span&gt;&lt;span style=&quot;border-color: rgb(0, 0, 0); color: rgb(174, 129, 255); font-size: 20px;&quot;&gt;false&lt;/span&gt;,&lt;/div&gt;&lt;div style=&quot;border-color: rgb(0, 0, 0); color: rgb(248, 248, 242); font-family: Consolas, &amp;quot;Courier New&amp;quot;, monospace; font-size: 20px; font-style: normal; font-variant-ligatures: normal; font-variant-caps: normal; font-weight: 400; letter-spacing: normal; orphans: 2; text-align: left; text-indent: 0px; text-transform: none; widows: 2; word-spacing: 0px; -webkit-text-stroke-width: 0px; text-decoration-thickness: initial; text-decoration-style: initial; text-decoration-color: initial;&quot;&gt;&amp;nbsp; &amp;nbsp; })&lt;/div&gt;&lt;div style=&quot;border-color: rgb(0, 0, 0); color: rgb(248, 248, 242); font-family: Consolas, &amp;quot;Courier New&amp;quot;, monospace; font-size: 20px; font-style: normal; font-variant-ligatures: normal; font-variant-caps: normal; font-weight: 400; letter-spacing: normal; orphans: 2; text-align: left; text-indent: 0px; text-transform: none; widows: 2; word-spacing: 0px; -webkit-text-stroke-width: 0px; text-decoration-thickness: initial; text-decoration-style: initial; text-decoration-color: initial;&quot;&gt;&amp;nbsp; &amp;nbsp; &amp;nbsp; .&lt;span style=&quot;border-color: rgb(0, 0, 0); color: rgb(166, 226, 46); font-size: 20px;&quot;&gt;concat&lt;/span&gt;(&lt;span style=&quot;border-color: rgb(0, 0, 0); color: rgb(166, 226, 46); font-size: 20px;&quot;&gt;rtkQueryListener&lt;/span&gt;)&lt;/div&gt;&lt;div style=&quot;border-color: rgb(0, 0, 0); color: rgb(248, 248, 242); font-family: Consolas, &amp;quot;Courier New&amp;quot;, monospace; font-size: 20px; font-style: normal; font-variant-ligatures: normal; font-variant-caps: normal; font-weight: 400; letter-spacing: normal; orphans: 2; text-align: left; text-indent: 0px; text-transform: none; widows: 2; word-spacing: 0px; -webkit-text-stroke-width: 0px; text-decoration-thickness: initial; text-decoration-style: initial; text-decoration-color: initial;&quot;&gt;&amp;nbsp; &amp;nbsp; &amp;nbsp; .&lt;span style=&quot;border-color: rgb(0, 0, 0); color: rgb(166, 226, 46); font-size: 20px;&quot;&gt;concat&lt;/span&gt;(apiBack.&lt;span style=&quot;border-color: rgb(0, 0, 0); color: rgb(166, 226, 46); font-size: 20px;&quot;&gt;middleware&lt;/span&gt;)&lt;/div&gt;&lt;div style=&quot;border-color: rgb(0, 0, 0); color: rgb(248, 248, 242); font-family: Consolas, &amp;quot;Courier New&amp;quot;, monospace; font-size: 20px; font-style: normal; font-variant-ligatures: normal; font-variant-caps: normal; font-weight: 400; letter-spacing: normal; orphans: 2; text-align: left; text-indent: 0px; text-transform: none; widows: 2; word-spacing: 0px; -webkit-text-stroke-width: 0px; text-decoration-thickness: initial; text-decoration-style: initial; text-decoration-color: initial;&quot;&gt;});&lt;/div&gt;" style="text;whiteSpace=wrap;html=1;fontFamily=Comic Sans MS;fontColor=#FFFFFF;fontSize=20;" vertex="1" parent="SMNemmRvqjc8gFhwl8cE-10">
          <mxGeometry x="50" y="160" width="640" height="350" as="geometry" />
        </mxCell>
        <mxCell id="SMNemmRvqjc8gFhwl8cE-15" value="&lt;div style=&quot;border-color: rgb(0, 0, 0); color: rgb(248, 248, 242); font-family: Consolas, &amp;quot;Courier New&amp;quot;, monospace; font-size: 20px; font-style: normal; font-variant-ligatures: normal; font-variant-caps: normal; font-weight: 400; letter-spacing: normal; orphans: 2; text-align: left; text-indent: 0px; text-transform: none; widows: 2; word-spacing: 0px; -webkit-text-stroke-width: 0px; text-decoration-thickness: initial; text-decoration-style: initial; text-decoration-color: initial;&quot;&gt;&lt;div style=&quot;font-size: 20px;&quot;&gt;&lt;span style=&quot;color: rgb(249, 38, 114); font-size: 20px;&quot;&gt;export&lt;/span&gt;&amp;nbsp;&lt;span style=&quot;color: rgb(102, 217, 239); font-style: italic; font-size: 20px;&quot;&gt;const&lt;/span&gt;&amp;nbsp;&lt;span style=&quot;color: rgb(166, 226, 46); font-size: 20px;&quot;&gt;useGlobalStore&lt;/span&gt;&amp;nbsp;&lt;span style=&quot;color: rgb(249, 38, 114); font-size: 20px;&quot;&gt;=&lt;/span&gt;&amp;nbsp;()&amp;nbsp;&lt;span style=&quot;color: rgb(102, 217, 239); font-style: italic; font-size: 20px;&quot;&gt;=&amp;gt;&lt;/span&gt;&amp;nbsp;{&lt;/div&gt;&lt;div style=&quot;font-size: 20px;&quot;&gt;&amp;nbsp;&amp;nbsp;&lt;span style=&quot;color: rgb(102, 217, 239); font-style: italic; font-size: 20px;&quot;&gt;const&lt;/span&gt;&amp;nbsp;dispatch&amp;nbsp;&lt;span style=&quot;color: rgb(249, 38, 114); font-size: 20px;&quot;&gt;=&lt;/span&gt;&amp;nbsp;&lt;span style=&quot;color: rgb(166, 226, 46); font-size: 20px;&quot;&gt;useAppDispatch&lt;/span&gt;();&lt;/div&gt;&lt;br style=&quot;font-size: 20px;&quot;&gt;&lt;div style=&quot;font-size: 20px;&quot;&gt;&amp;nbsp;&amp;nbsp;&lt;span style=&quot;color: rgb(249, 38, 114); font-size: 20px;&quot;&gt;return&lt;/span&gt;&amp;nbsp;{&lt;/div&gt;&lt;div style=&quot;font-size: 20px;&quot;&gt;&amp;nbsp; &amp;nbsp; count:&amp;nbsp;&lt;span style=&quot;color: rgb(166, 226, 46); font-size: 20px;&quot;&gt;useAppSelector&lt;/span&gt;((&lt;span style=&quot;color: rgb(253, 151, 31); font-style: italic; font-size: 20px;&quot;&gt;state&lt;/span&gt;)&amp;nbsp;&lt;span style=&quot;color: rgb(102, 217, 239); font-style: italic; font-size: 20px;&quot;&gt;=&amp;gt;&lt;/span&gt;&amp;nbsp;&lt;span style=&quot;color: rgb(253, 151, 31); font-style: italic; font-size: 20px;&quot;&gt;state&lt;/span&gt;.counter.value),&lt;/div&gt;&lt;div style=&quot;font-size: 20px;&quot;&gt;&amp;nbsp; &amp;nbsp;&amp;nbsp;&lt;span style=&quot;color: rgb(166, 226, 46); font-size: 20px;&quot;&gt;increment&lt;/span&gt;: ()&amp;nbsp;&lt;span style=&quot;color: rgb(102, 217, 239); font-style: italic; font-size: 20px;&quot;&gt;=&amp;gt;&lt;/span&gt;&amp;nbsp;&lt;span style=&quot;color: rgb(166, 226, 46); font-size: 20px;&quot;&gt;dispatch&lt;/span&gt;(counterSlice.actions.&lt;span style=&quot;color: rgb(166, 226, 46); font-size: 20px;&quot;&gt;increment&lt;/span&gt;()),&lt;/div&gt;&lt;div style=&quot;font-size: 20px;&quot;&gt;&amp;nbsp; &amp;nbsp;&amp;nbsp;&lt;span style=&quot;color: rgb(166, 226, 46); font-size: 20px;&quot;&gt;decrement&lt;/span&gt;: ()&amp;nbsp;&lt;span style=&quot;color: rgb(102, 217, 239); font-style: italic; font-size: 20px;&quot;&gt;=&amp;gt;&lt;/span&gt;&amp;nbsp;&lt;span style=&quot;color: rgb(166, 226, 46); font-size: 20px;&quot;&gt;dispatch&lt;/span&gt;(counterSlice.actions.&lt;span style=&quot;color: rgb(166, 226, 46); font-size: 20px;&quot;&gt;decrement&lt;/span&gt;()),&lt;/div&gt;&lt;div style=&quot;font-size: 20px;&quot;&gt;&amp;nbsp; };&lt;/div&gt;&lt;div style=&quot;font-size: 20px;&quot;&gt;};&lt;/div&gt;&lt;/div&gt;" style="text;whiteSpace=wrap;html=1;fontFamily=Comic Sans MS;fontColor=#FFFFFF;fontSize=20;" vertex="1" parent="SMNemmRvqjc8gFhwl8cE-10">
          <mxGeometry x="50" y="630" width="770" height="170" as="geometry" />
        </mxCell>
        <mxCell id="SMNemmRvqjc8gFhwl8cE-16" value="&lt;div style=&quot;color: rgb(248, 248, 242); font-family: Consolas, &amp;quot;Courier New&amp;quot;, monospace; font-size: 20px;&quot;&gt;&lt;span style=&quot;color: rgb(249, 38, 114); font-size: 20px;&quot;&gt;export&lt;/span&gt;&amp;nbsp;&lt;span style=&quot;color: rgb(102, 217, 239); font-style: italic; font-size: 20px;&quot;&gt;const&lt;/span&gt;&amp;nbsp;WithStore&lt;span style=&quot;color: rgb(249, 38, 114); font-size: 20px;&quot;&gt;:&lt;/span&gt;&amp;nbsp;&lt;span style=&quot;color: rgb(166, 226, 46); text-decoration-line: underline; font-size: 20px;&quot;&gt;React&lt;/span&gt;.&lt;span style=&quot;color: rgb(166, 226, 46); text-decoration-line: underline; font-size: 20px;&quot;&gt;FC&lt;/span&gt;&amp;lt;&lt;span style=&quot;color: rgb(166, 226, 46); text-decoration-line: underline; font-size: 20px;&quot;&gt;PropsWithChildren&lt;/span&gt;&amp;gt;&amp;nbsp;&lt;span style=&quot;color: rgb(249, 38, 114); font-size: 20px;&quot;&gt;=&lt;/span&gt;&amp;nbsp;({&amp;nbsp;&lt;span style=&quot;color: rgb(253, 151, 31); font-style: italic; font-size: 20px;&quot;&gt;children&lt;/span&gt;&amp;nbsp;})&amp;nbsp;&lt;span style=&quot;color: rgb(102, 217, 239); font-style: italic; font-size: 20px;&quot;&gt;=&amp;gt;&lt;/span&gt;&amp;nbsp;{&lt;/div&gt;&lt;div style=&quot;color: rgb(248, 248, 242); font-family: Consolas, &amp;quot;Courier New&amp;quot;, monospace; font-size: 20px;&quot;&gt;&amp;nbsp;&amp;nbsp;&lt;span style=&quot;color: rgb(249, 38, 114); font-size: 20px;&quot;&gt;return&lt;/span&gt;&amp;nbsp;&amp;lt;&lt;span style=&quot;color: rgb(166, 226, 46); text-decoration-line: underline; font-size: 20px;&quot;&gt;Provider&lt;/span&gt;&amp;nbsp;store={store}&amp;gt;{children}&lt;span style=&quot;color: rgb(249, 38, 114); font-size: 20px;&quot;&gt;&amp;lt;&lt;/span&gt;&lt;span style=&quot;color: rgb(249, 38, 114); font-size: 20px;&quot;&gt;/&lt;/span&gt;Provider&lt;span style=&quot;color: rgb(249, 38, 114); font-size: 20px;&quot;&gt;&amp;gt;&lt;/span&gt;;&lt;/div&gt;&lt;div style=&quot;color: rgb(248, 248, 242); font-family: Consolas, &amp;quot;Courier New&amp;quot;, monospace; font-size: 20px;&quot;&gt;};&lt;/div&gt;" style="text;html=1;align=left;verticalAlign=middle;resizable=0;points=[];autosize=1;strokeColor=none;fillColor=none;fontFamily=Comic Sans MS;fontColor=#FFFFFF;fontSize=20;" vertex="1" parent="SMNemmRvqjc8gFhwl8cE-10">
          <mxGeometry x="50" y="1000" width="830" height="90" as="geometry" />
        </mxCell>
        <mxCell id="SMNemmRvqjc8gFhwl8cE-17" style="edgeStyle=none;html=1;exitX=1;exitY=0;exitDx=0;exitDy=0;entryX=0;entryY=0.25;entryDx=0;entryDy=0;fontFamily=Comic Sans MS;fontColor=#FFFFFF;sketch=1;curveFitting=1;jiggle=2;strokeColor=#007FFF;" edge="1" parent="1" source="SMNemmRvqjc8gFhwl8cE-6" target="SMNemmRvqjc8gFhwl8cE-10">
          <mxGeometry relative="1" as="geometry" />
        </mxCell>
        <mxCell id="SMNemmRvqjc8gFhwl8cE-18" value="&lt;h3&gt;&lt;font face=&quot;Comic Sans MS&quot;&gt;API&lt;/font&gt;&lt;/h3&gt;" style="swimlane;whiteSpace=wrap;html=1;sketch=1;startSize=50;fillColor=#666600;strokeColor=#FFFF00;fontColor=#ffffff;" vertex="1" parent="1">
          <mxGeometry x="1070" y="6300" width="950" height="430" as="geometry" />
        </mxCell>
        <mxCell id="SMNemmRvqjc8gFhwl8cE-19" value="&lt;h1&gt;&lt;b&gt;apiBack&lt;/b&gt;&lt;/h1&gt;" style="text;html=1;align=center;verticalAlign=middle;resizable=0;points=[];autosize=1;strokeColor=none;fillColor=none;fontFamily=Comic Sans MS;fontColor=#FFFFFF;" vertex="1" parent="SMNemmRvqjc8gFhwl8cE-18">
          <mxGeometry x="40" y="80" width="110" height="70" as="geometry" />
        </mxCell>
        <mxCell id="SMNemmRvqjc8gFhwl8cE-20" value="&lt;div style=&quot;border-color: rgb(0, 0, 0); color: rgb(248, 248, 242); font-family: Consolas, &amp;quot;Courier New&amp;quot;, monospace; font-size: 20px; font-style: normal; font-variant-ligatures: normal; font-variant-caps: normal; font-weight: 400; letter-spacing: normal; orphans: 2; text-align: left; text-indent: 0px; text-transform: none; widows: 2; word-spacing: 0px; -webkit-text-stroke-width: 0px; text-decoration-thickness: initial; text-decoration-style: initial; text-decoration-color: initial;&quot;&gt;&lt;div style=&quot;border-color: rgb(0, 0, 0); line-height: 19px; font-size: 20px;&quot;&gt;&lt;div style=&quot;line-height: 19px;&quot;&gt;&lt;div style=&quot;&quot;&gt;&lt;span style=&quot;color: rgb(249, 38, 114);&quot;&gt;export&lt;/span&gt; &lt;span style=&quot;color: rgb(102, 217, 239); font-style: italic;&quot;&gt;const&lt;/span&gt; apiBack &lt;span style=&quot;color: rgb(249, 38, 114);&quot;&gt;=&lt;/span&gt; &lt;span style=&quot;color: rgb(166, 226, 46);&quot;&gt;createApi&lt;/span&gt;({&lt;/div&gt;&lt;div style=&quot;&quot;&gt;&amp;nbsp; reducerPath: &lt;span style=&quot;color: #e6db74;&quot;&gt;&quot;apiBack&quot;&lt;/span&gt;,&lt;/div&gt;&lt;div style=&quot;&quot;&gt;&amp;nbsp; &lt;span style=&quot;color: #a6e22e;&quot;&gt;baseQuery&lt;/span&gt;: &lt;span style=&quot;color: #a6e22e;&quot;&gt;retry&lt;/span&gt;(&lt;/div&gt;&lt;div style=&quot;&quot;&gt;&amp;nbsp; &amp;nbsp; &lt;span style=&quot;color: #a6e22e;&quot;&gt;fetchBaseQuery&lt;/span&gt;({&lt;/div&gt;&lt;div style=&quot;&quot;&gt;&amp;nbsp; &amp;nbsp; &amp;nbsp; baseUrl: &lt;span style=&quot;color: #a6e22e;&quot;&gt;buildBaseURL&lt;/span&gt;(&lt;span style=&quot;color: #e6db74;&quot;&gt;&quot;BACK&quot;&lt;/span&gt;),&lt;/div&gt;&lt;div style=&quot;&quot;&gt;&amp;nbsp; &amp;nbsp; &amp;nbsp; credentials: &lt;span style=&quot;color: #e6db74;&quot;&gt;&quot;include&quot;&lt;/span&gt;,&lt;/div&gt;&lt;div style=&quot;&quot;&gt;&amp;nbsp; &amp;nbsp; }),&lt;/div&gt;&lt;div style=&quot;&quot;&gt;&amp;nbsp; &amp;nbsp; { maxRetries: &lt;span style=&quot;color: #ae81ff;&quot;&gt;2&lt;/span&gt; },&lt;/div&gt;&lt;div style=&quot;&quot;&gt;&amp;nbsp; ),&lt;/div&gt;&lt;div style=&quot;&quot;&gt;&amp;nbsp; &lt;span style=&quot;color: #a6e22e;&quot;&gt;endpoints&lt;/span&gt;: () &lt;span style=&quot;color: #66d9ef;font-style: italic;&quot;&gt;=&amp;gt;&lt;/span&gt; ({}),&lt;/div&gt;&lt;div style=&quot;&quot;&gt;});&lt;/div&gt;&lt;/div&gt;&lt;/div&gt;&lt;/div&gt;" style="text;whiteSpace=wrap;html=1;fontFamily=Comic Sans MS;fontColor=#FFFFFF;fontSize=20;perimeterSpacing=0;spacingTop=0;horizontal=1;" vertex="1" parent="SMNemmRvqjc8gFhwl8cE-18">
          <mxGeometry x="50" y="160" width="640" height="240" as="geometry" />
        </mxCell>
        <mxCell id="SMNemmRvqjc8gFhwl8cE-21" style="edgeStyle=none;sketch=1;html=1;exitX=1;exitY=1;exitDx=0;exitDy=0;entryX=0;entryY=0;entryDx=0;entryDy=0;strokeColor=#FFFF00;fontFamily=Comic Sans MS;fontSize=20;fontColor=#FFFFFF;" edge="1" parent="1" source="SMNemmRvqjc8gFhwl8cE-8" target="SMNemmRvqjc8gFhwl8cE-18">
          <mxGeometry relative="1" as="geometry" />
        </mxCell>
        <mxCell id="SMNemmRvqjc8gFhwl8cE-22" value="&lt;h3&gt;&lt;font face=&quot;Comic Sans MS&quot;&gt;UI&lt;/font&gt;&lt;/h3&gt;" style="swimlane;whiteSpace=wrap;html=1;sketch=1;startSize=50;fillColor=#660000;strokeColor=#FF0000;fontColor=#ffffff;" vertex="1" parent="1">
          <mxGeometry x="500" y="6300" width="400" height="160" as="geometry" />
        </mxCell>
        <mxCell id="SMNemmRvqjc8gFhwl8cE-23" value="&lt;h1&gt;&lt;b&gt;materiaUI&lt;/b&gt;&lt;/h1&gt;" style="text;html=1;align=center;verticalAlign=middle;resizable=0;points=[];autosize=1;strokeColor=none;fillColor=none;fontFamily=Comic Sans MS;fontColor=#FFFFFF;" vertex="1" parent="SMNemmRvqjc8gFhwl8cE-22">
          <mxGeometry x="120" y="67" width="140" height="70" as="geometry" />
        </mxCell>
        <mxCell id="SMNemmRvqjc8gFhwl8cE-24" style="edgeStyle=none;sketch=1;html=1;exitX=0.5;exitY=1;exitDx=0;exitDy=0;entryX=0.5;entryY=0;entryDx=0;entryDy=0;strokeColor=#FF0000;fontFamily=Comic Sans MS;fontSize=20;fontColor=#FFFFFF;" edge="1" parent="1" source="SMNemmRvqjc8gFhwl8cE-9" target="SMNemmRvqjc8gFhwl8cE-22">
          <mxGeometry relative="1" as="geometry" />
        </mxCell>
        <mxCell id="SMNemmRvqjc8gFhwl8cE-25" style="edgeStyle=none;sketch=1;html=1;exitX=0;exitY=0.5;exitDx=0;exitDy=0;entryX=1;entryY=0.5;entryDx=0;entryDy=0;strokeColor=#FFFF00;fontFamily=Comic Sans MS;fontSize=20;fontColor=#FFFFFF;" edge="1" parent="1" source="SMNemmRvqjc8gFhwl8cE-8" target="SMNemmRvqjc8gFhwl8cE-3">
          <mxGeometry relative="1" as="geometry" />
        </mxCell>
        <mxCell id="SMNemmRvqjc8gFhwl8cE-26" style="edgeStyle=none;sketch=1;html=1;exitX=0;exitY=0.5;exitDx=0;exitDy=0;entryX=1;entryY=0.5;entryDx=0;entryDy=0;strokeColor=#007FFF;fontFamily=Comic Sans MS;fontSize=20;fontColor=#FFFFFF;" edge="1" parent="1" source="SMNemmRvqjc8gFhwl8cE-6" target="SMNemmRvqjc8gFhwl8cE-2">
          <mxGeometry relative="1" as="geometry" />
        </mxCell>
        <mxCell id="SMNemmRvqjc8gFhwl8cE-27" style="edgeStyle=none;sketch=1;html=1;exitX=0;exitY=0.5;exitDx=0;exitDy=0;strokeColor=#FF0000;fontFamily=Comic Sans MS;fontSize=20;fontColor=#FFFFFF;" edge="1" parent="1" source="SMNemmRvqjc8gFhwl8cE-9">
          <mxGeometry relative="1" as="geometry">
            <mxPoint x="310" y="5970" as="targetPoint" />
          </mxGeometry>
        </mxCell>
        <mxCell id="SMNemmRvqjc8gFhwl8cE-28" style="edgeStyle=none;sketch=1;html=1;strokeColor=#FF0000;fontFamily=Comic Sans MS;fontSize=20;fontColor=#FFFFFF;" edge="1" parent="1">
          <mxGeometry relative="1" as="geometry">
            <mxPoint x="310" y="5870" as="targetPoint" />
            <mxPoint x="550" y="6070" as="sourcePoint" />
          </mxGeometry>
        </mxCell>
        <mxCell id="SMNemmRvqjc8gFhwl8cE-29" value="&lt;h3&gt;&lt;font face=&quot;Comic Sans MS&quot;&gt;STATE&lt;/font&gt;&lt;/h3&gt;" style="swimlane;whiteSpace=wrap;html=1;sketch=1;startSize=50;fillColor=#006633;strokeColor=#00FF80;fontColor=#ffffff;" vertex="1" parent="1">
          <mxGeometry x="-1090" y="5780" width="790" height="770" as="geometry" />
        </mxCell>
        <mxCell id="SMNemmRvqjc8gFhwl8cE-30" value="&lt;h1&gt;&lt;b&gt;STORE&lt;/b&gt;&lt;/h1&gt;" style="text;html=1;align=center;verticalAlign=middle;resizable=0;points=[];autosize=1;strokeColor=none;fillColor=none;fontFamily=Comic Sans MS;fontColor=#FFFFFF;" vertex="1" parent="SMNemmRvqjc8gFhwl8cE-29">
          <mxGeometry x="40" y="80" width="110" height="70" as="geometry" />
        </mxCell>
        <mxCell id="SMNemmRvqjc8gFhwl8cE-31" value="&lt;div style=&quot;border-color: rgb(0, 0, 0); orphans: 2; text-align: left; text-indent: 0px; widows: 2; text-decoration-thickness: initial; text-decoration-style: initial; text-decoration-color: initial; -webkit-text-stroke-width: 0px; word-spacing: 0px; text-transform: none; letter-spacing: normal; font-weight: 400; font-variant-caps: normal; font-variant-ligatures: normal; font-style: normal; font-size: 20px; font-family: Consolas, &amp;quot;Courier New&amp;quot;, monospace; color: rgb(248, 248, 242);&quot;&gt;&lt;div style=&quot;border-color: rgb(0, 0, 0); line-height: 19px; font-size: 20px;&quot;&gt;&lt;div style=&quot;line-height: 19px;&quot;&gt;&lt;div style=&quot;&quot;&gt;&lt;span style=&quot;color: rgb(249, 38, 114);&quot;&gt;import&lt;/span&gt; { createSlice } &lt;span style=&quot;color: rgb(249, 38, 114);&quot;&gt;from&lt;/span&gt; &lt;span style=&quot;color: rgb(230, 219, 116);&quot;&gt;&#39;@reduxjs/toolkit&#39;&lt;/span&gt;;&lt;/div&gt;&lt;br&gt;&lt;div style=&quot;&quot;&gt;&lt;span style=&quot;color: #66d9ef;font-style: italic;&quot;&gt;interface&lt;/span&gt; &lt;span style=&quot;color: rgb(166, 226, 46); text-decoration-line: underline;&quot;&gt;MainState&lt;/span&gt; {&lt;/div&gt;&lt;div style=&quot;&quot;&gt;&amp;nbsp; number&lt;span style=&quot;color: #f92672;&quot;&gt;:&lt;/span&gt; &lt;span style=&quot;color: #66d9ef;font-style: italic;&quot;&gt;number&lt;/span&gt;;&lt;/div&gt;&lt;div style=&quot;&quot;&gt;}&lt;/div&gt;&lt;br&gt;&lt;div style=&quot;&quot;&gt;&lt;span style=&quot;color: #66d9ef;font-style: italic;&quot;&gt;const&lt;/span&gt; initialState&lt;span style=&quot;color: #f92672;&quot;&gt;:&lt;/span&gt; &lt;span style=&quot;color: rgb(166, 226, 46); text-decoration-line: underline;&quot;&gt;MainState&lt;/span&gt; &lt;span style=&quot;color: #f92672;&quot;&gt;=&lt;/span&gt; {&lt;/div&gt;&lt;div style=&quot;&quot;&gt;&amp;nbsp; number: &lt;span style=&quot;color: #ae81ff;&quot;&gt;0&lt;/span&gt;,&lt;/div&gt;&lt;div style=&quot;&quot;&gt;};&lt;/div&gt;&lt;br&gt;&lt;div style=&quot;&quot;&gt;&lt;span style=&quot;color: #f92672;&quot;&gt;export&lt;/span&gt; &lt;span style=&quot;color: #66d9ef;font-style: italic;&quot;&gt;const&lt;/span&gt;&amp;nbsp;mainSlice &lt;span style=&quot;color: #f92672;&quot;&gt;=&lt;/span&gt; &lt;span style=&quot;color: #a6e22e;&quot;&gt;createSlice&lt;/span&gt;({&lt;/div&gt;&lt;div style=&quot;&quot;&gt;&amp;nbsp; name: &lt;span style=&quot;color: #e6db74;&quot;&gt;&#39;main&#39;&lt;/span&gt;,&lt;/div&gt;&lt;div style=&quot;&quot;&gt;&amp;nbsp; initialState,&lt;/div&gt;&lt;div style=&quot;&quot;&gt;&amp;nbsp; reducers: {&lt;span style=&quot;background-color: initial;&quot;&gt;}&lt;/span&gt;&lt;/div&gt;&lt;div style=&quot;&quot;&gt;});&lt;/div&gt;&lt;/div&gt;&lt;/div&gt;&lt;/div&gt;" style="text;whiteSpace=wrap;html=1;fontFamily=Comic Sans MS;fontColor=#FFFFFF;fontSize=20;" vertex="1" parent="SMNemmRvqjc8gFhwl8cE-29">
          <mxGeometry x="50" y="160" width="640" height="310" as="geometry" />
        </mxCell>
        <mxCell id="SMNemmRvqjc8gFhwl8cE-32" value="&lt;h1&gt;&lt;b&gt;API&lt;/b&gt;&lt;/h1&gt;" style="text;html=1;align=center;verticalAlign=middle;resizable=0;points=[];autosize=1;strokeColor=none;fillColor=none;fontFamily=Comic Sans MS;fontColor=#FFFFFF;" vertex="1" parent="SMNemmRvqjc8gFhwl8cE-29">
          <mxGeometry x="40" y="520" width="70" height="70" as="geometry" />
        </mxCell>
        <mxCell id="SMNemmRvqjc8gFhwl8cE-33" value="&lt;div style=&quot;border-color: rgb(0, 0, 0); orphans: 2; text-align: left; text-indent: 0px; widows: 2; text-decoration-thickness: initial; text-decoration-style: initial; text-decoration-color: initial; -webkit-text-stroke-width: 0px; word-spacing: 0px; text-transform: none; letter-spacing: normal; font-weight: 400; font-variant-caps: normal; font-variant-ligatures: normal; font-style: normal; font-size: 20px; font-family: Consolas, &amp;quot;Courier New&amp;quot;, monospace; color: rgb(248, 248, 242);&quot;&gt;&lt;div style=&quot;border-color: rgb(0, 0, 0); line-height: 19px; font-size: 20px;&quot;&gt;&lt;div style=&quot;line-height: 19px;&quot;&gt;&lt;div style=&quot;&quot;&gt;&lt;span style=&quot;color: rgb(249, 38, 114);&quot;&gt;import&lt;/span&gt; { apiBack } &lt;span style=&quot;color: rgb(249, 38, 114);&quot;&gt;from&lt;/span&gt; &lt;span style=&quot;color: rgb(230, 219, 116);&quot;&gt;&#39;@reduxjs/toolkit&#39;&lt;/span&gt;;&lt;/div&gt;&lt;br&gt;&lt;div style=&quot;&quot;&gt;&lt;span style=&quot;color: #f92672;&quot;&gt;export&lt;/span&gt; &lt;span style=&quot;color: #66d9ef;font-style: italic;&quot;&gt;const&lt;/span&gt;&amp;nbsp;mainApiSlice &lt;span style=&quot;color: #f92672;&quot;&gt;=&lt;/span&gt;&amp;nbsp;apiBack.&lt;span style=&quot;color: #a6e22e;&quot;&gt;injectEndpoints&lt;/span&gt;(...&lt;span style=&quot;background-color: initial;&quot;&gt;);&lt;br&gt;&lt;br&gt;&lt;/span&gt;&lt;span style=&quot;color: rgb(249, 38, 114);&quot;&gt;export&lt;/span&gt;&amp;nbsp;&lt;span style=&quot;color: rgb(102, 217, 239); font-style: italic;&quot;&gt;const&lt;/span&gt;&amp;nbsp;{ ... }&amp;nbsp;&lt;span style=&quot;color: rgb(249, 38, 114);&quot;&gt;=&lt;/span&gt;&amp;nbsp;mainApiSlice&lt;span style=&quot;background-color: initial;&quot;&gt;;&lt;/span&gt;&lt;span style=&quot;background-color: initial;&quot;&gt;&lt;br&gt;&lt;/span&gt;&lt;/div&gt;&lt;/div&gt;&lt;/div&gt;&lt;/div&gt;" style="text;whiteSpace=wrap;html=1;fontFamily=Comic Sans MS;fontColor=#FFFFFF;fontSize=20;" vertex="1" parent="SMNemmRvqjc8gFhwl8cE-29">
          <mxGeometry x="50" y="590" width="640" height="130" as="geometry" />
        </mxCell>
        <mxCell id="SMNemmRvqjc8gFhwl8cE-34" style="edgeStyle=none;sketch=1;html=1;entryX=1;entryY=0.25;entryDx=0;entryDy=0;strokeColor=#00FF80;fontFamily=Comic Sans MS;fontSize=20;fontColor=#FFFFFF;exitX=0;exitY=0.5;exitDx=0;exitDy=0;" edge="1" parent="1" source="SMNemmRvqjc8gFhwl8cE-3" target="SMNemmRvqjc8gFhwl8cE-29">
          <mxGeometry relative="1" as="geometry" />
        </mxCell>
        <mxCell id="SMNemmRvqjc8gFhwl8cE-35" style="edgeStyle=none;sketch=1;html=1;entryX=1;entryY=0.5;entryDx=0;entryDy=0;strokeColor=#007FFF;fontFamily=Courier New;fontSize=20;fontColor=#FFFFFF;" edge="1" parent="1" target="SMNemmRvqjc8gFhwl8cE-3">
          <mxGeometry relative="1" as="geometry">
            <mxPoint x="550" y="5870" as="sourcePoint" />
          </mxGeometry>
        </mxCell>
        <mxCell id="SMNemmRvqjc8gFhwl8cE-36" value="" style="endArrow=none;dashed=1;html=1;dashPattern=1 3;strokeWidth=2;rounded=0;strokeColor=#FFFFFF;" edge="1" parent="1">
          <mxGeometry width="50" height="50" relative="1" as="geometry">
            <mxPoint x="-557" y="4740" as="sourcePoint" />
            <mxPoint x="1283" y="4740" as="targetPoint" />
          </mxGeometry>
        </mxCell>
        <mxCell id="SMNemmRvqjc8gFhwl8cE-37" value="&lt;font color=&quot;#ffffff&quot; style=&quot;font-size: 30px; background-color: rgb(0, 0, 0);&quot; face=&quot;Comic Sans MS&quot;&gt;&amp;nbsp; REALIZATION&amp;nbsp;&amp;nbsp;&lt;/font&gt;" style="text;html=1;align=center;verticalAlign=middle;resizable=0;points=[];autosize=1;strokeColor=none;fillColor=none;" vertex="1" parent="1">
          <mxGeometry x="173" y="4711" width="280" height="50" as="geometry" />
        </mxCell>
      </root>
    </mxGraphModel>
  </diagram>
</mxfile>
